<svg width="33" height="33" viewBox="0 0 33 33" fill="none" xmlns="http://www.w3.org/2000/svg">
<path d="M8.66683 25.264C11.6082 25.264 14.0002 22.872 14.0002 19.9306V6.40396L26.0002 10.7666V20.6733C25.1933 20.1926 24.2727 19.9362 23.3335 19.9306C20.3922 19.9306 18.0002 22.3226 18.0002 25.264C18.0002 28.2053 20.3922 30.5973 23.3335 30.5973C26.2748 30.5973 28.6668 28.2053 28.6668 25.264V9.8333C28.667 9.55974 28.5829 9.29276 28.4259 9.06873C28.2689 8.8447 28.0467 8.6745 27.7895 8.5813L13.1228 3.24796C12.9215 3.17436 12.7054 3.15044 12.4928 3.17824C12.2802 3.20603 12.0775 3.28472 11.9019 3.40762C11.7262 3.53052 11.5828 3.694 11.4839 3.88417C11.3849 4.07435 11.3333 4.28559 11.3335 4.49996V15.34C10.5267 14.8592 9.60601 14.6028 8.66683 14.5973C5.7255 14.5973 3.3335 16.9893 3.3335 19.9306C3.3335 22.872 5.7255 25.264 8.66683 25.264Z" fill="#191919" fill-opacity="0.3"/>
</svg>
