<svg width="330" height="40" viewBox="0 0 330 40" fill="none" xmlns="http://www.w3.org/2000/svg">
<path d="M8.71566 16.3337C8.76689 16.4588 8.87133 16.8154 9.02898 17.4035C9.09992 17.6705 9.13736 17.9541 9.1413 18.2544H8.60334C8.22499 17.6872 7.83482 17.2805 7.43283 17.0344C7.03083 16.7842 6.58154 16.659 6.08496 16.659C5.47409 16.659 4.98145 16.9114 4.60705 17.4161C4.09864 18.1001 3.84444 19.0532 3.84444 20.2753C3.84444 20.9844 3.88779 21.4891 3.9745 21.7894C4.11638 22.2774 4.2957 22.6757 4.51246 22.9844C4.67799 23.2179 4.89475 23.4035 5.16274 23.5412C5.50956 23.7289 5.88003 23.8227 6.27414 23.8227C6.70766 23.8227 7.12542 23.6809 7.52741 23.3973C7.93335 23.1095 8.32155 22.682 8.69201 22.1147C8.83783 22.0855 9.02898 22.0688 9.26544 22.0647C9.24968 22.2231 9.22406 22.3879 9.18859 22.5589C9.17677 22.6257 9.13144 22.8905 9.05262 23.3535L8.99942 23.5412L8.91665 23.8352C8.67625 24.0313 8.33731 24.1794 7.89985 24.2795C7.46632 24.3754 6.9323 24.4234 6.29778 24.4234C5.81303 24.4234 5.35389 24.3754 4.92037 24.2795C4.49078 24.1835 4.12229 24.0313 3.81488 23.8227C3.3656 23.5224 3.01287 23.1971 2.75669 22.8467C2.50052 22.4964 2.30938 22.1147 2.18326 21.7018C2.06109 21.2888 2 20.8259 2 20.3128C2 19.0699 2.38623 18.0438 3.15869 17.2346C3.93509 16.4254 4.92431 16.0209 6.12635 16.0209C6.61504 16.0209 7.07418 16.048 7.50377 16.1022C7.93729 16.1522 8.34125 16.2294 8.71566 16.3337Z" fill="white"/>
<path d="M9.50191 24.3045L9.51373 23.879C9.58861 23.854 9.72064 23.8227 9.90981 23.7852C10.2133 23.7226 10.3965 23.6663 10.4596 23.6163C10.5266 23.5662 10.6074 23.4453 10.702 23.2534L11.8961 19.9437L13.2972 16.0521C13.4273 16.0563 13.5514 16.0584 13.6696 16.0584H13.9357L13.9889 16.171L15.0175 18.7487C15.25 19.2951 15.4589 19.8269 15.6441 20.3441C15.8294 20.8571 15.989 21.2763 16.123 21.6017C16.2018 21.7977 16.3102 22.0918 16.4481 22.4838C16.5191 22.6966 16.6274 22.9635 16.7733 23.2847C16.8521 23.4599 16.9112 23.562 16.9506 23.5912C17.0216 23.6538 17.1358 23.6955 17.2935 23.7164C17.4551 23.7372 17.6285 23.7852 17.8137 23.8603C17.8334 23.9979 17.8433 24.1001 17.8433 24.1668C17.8433 24.196 17.8413 24.2419 17.8374 24.3045C17.5457 24.3045 17.2245 24.2899 16.8738 24.2607C16.523 24.2315 16.2077 24.2169 15.9279 24.2169C15.6165 24.2169 15.3919 24.2211 15.254 24.2294L14.249 24.2857L13.9593 24.2982C13.9593 24.1522 13.9652 24.0125 13.977 23.879L14.6332 23.7289C14.8303 23.6747 14.9446 23.633 14.9761 23.6038C15.0155 23.562 15.0352 23.5141 15.0352 23.4599C15.0352 23.4056 15.0254 23.3493 15.0057 23.2909L14.7692 22.6778L14.3022 21.4515L12.0439 21.4453C11.9612 21.6455 11.7897 22.1356 11.5296 22.9155C11.4547 23.1366 11.4173 23.2868 11.4173 23.366C11.4173 23.4745 11.4449 23.5516 11.5001 23.5975C11.5907 23.6767 11.7641 23.7331 12.0203 23.7664C12.0558 23.7748 12.1957 23.7977 12.44 23.8352C12.444 23.9854 12.4459 24.0897 12.4459 24.1481C12.4459 24.194 12.442 24.2419 12.4341 24.292C12.1897 24.292 11.6065 24.2565 10.6842 24.1856L10.4419 24.2294C10.1502 24.2795 9.87237 24.3045 9.60832 24.3045H9.50191ZM12.2804 20.7883C13.2026 20.8008 13.7465 20.8071 13.912 20.8071L14.0598 20.8008C13.9416 20.4296 13.7879 19.9979 13.5987 19.5057C13.4095 19.0094 13.2558 18.6319 13.1376 18.3733L12.2804 20.7883Z" fill="white"/>
<path d="M20.7341 22.0396C22.8308 19.7998 24.2023 18.2878 24.8486 17.5036C24.8486 17.195 24.8388 17.0177 24.819 16.9718C24.7993 16.9218 24.7343 16.8697 24.624 16.8154C24.5136 16.757 24.2988 16.6882 23.9796 16.609C23.8259 16.5714 23.7254 16.5422 23.6781 16.5214C23.686 16.367 23.7017 16.2482 23.7254 16.1648L23.8909 16.1585C24.222 16.1585 24.4427 16.1648 24.553 16.1773C24.8644 16.219 25.1757 16.2398 25.4871 16.2398C25.9915 16.2398 26.4526 16.2169 26.8704 16.171C27.0241 16.1543 27.1463 16.146 27.2369 16.146C27.3236 16.146 27.4478 16.1522 27.6094 16.1648C27.6054 16.3316 27.5956 16.4797 27.5798 16.609C27.1305 16.7091 26.8349 16.7904 26.693 16.853C26.5551 16.9114 26.4861 17.0177 26.4861 17.1721V18.0792L26.4921 19.4682L26.4802 20.2628L26.498 21.3889V22.2774L26.5098 23.0156C26.5098 23.1616 26.5058 23.3285 26.498 23.5162C26.5807 23.5412 26.6576 23.562 26.7285 23.5787C27.099 23.6621 27.3788 23.7477 27.568 23.8352L27.5857 24.2732L27.3315 24.2795C27.2645 24.2795 27.1877 24.2753 27.101 24.2669L26.6576 24.2419C26.3344 24.2044 25.8181 24.1856 25.1087 24.1856C24.7461 24.1856 24.4683 24.1981 24.2752 24.2231C24.0269 24.2523 23.8771 24.2669 23.8259 24.2669C23.7825 24.2669 23.7214 24.2544 23.6426 24.2294C23.6466 24.0292 23.6564 23.8936 23.6722 23.8227L24.0742 23.7226L24.3047 23.6788C24.553 23.6371 24.7146 23.6017 24.7895 23.5725C24.8407 23.2638 24.8663 22.5255 24.8663 21.3577L24.8604 19.512L24.8723 18.3483L20.7341 22.8592C20.738 23.3264 20.7439 23.5704 20.7518 23.5912C20.7755 23.6204 20.8444 23.6413 20.9587 23.6538L21.343 23.7164C21.6819 23.7831 21.8711 23.8311 21.9105 23.8603C21.9223 23.9562 21.9282 24.0209 21.9282 24.0542C21.9282 24.1084 21.9204 24.1835 21.9046 24.2795L21.5381 24.2857C21.3883 24.2857 21.1775 24.2732 20.9055 24.2482L20.4621 24.2419L20.1607 24.2231L19.6227 24.2044C19.4493 24.2044 19.2384 24.2169 18.9901 24.2419C18.7379 24.2669 18.4009 24.2795 17.9792 24.2795C17.9792 24.1502 17.9911 24.0021 18.0147 23.8352C18.0502 23.8269 18.1329 23.8144 18.263 23.7977L18.5172 23.7477C18.7655 23.7018 18.9527 23.6517 19.0788 23.5975C19.1182 22.8092 19.1379 22.121 19.1379 21.5328V20.7007L19.1557 18.586C19.1557 17.9479 19.134 17.3994 19.0906 16.9406C19.0867 16.9155 19.0729 16.8717 19.0493 16.8092C19.0256 16.7967 18.9901 16.7883 18.9428 16.7842C18.9074 16.78 18.8699 16.7737 18.8305 16.7654C18.6492 16.732 18.4857 16.7112 18.3399 16.7028L18.2512 16.6778C18.1408 16.6653 18.06 16.6486 18.0088 16.6277C17.997 16.5068 17.9911 16.4296 17.9911 16.3962C17.9911 16.3462 18.0029 16.2774 18.0265 16.1898C18.1132 16.1689 18.2059 16.1585 18.3044 16.1585C18.5921 16.1585 18.9271 16.1773 19.3094 16.2148C19.6562 16.2482 19.9439 16.2649 20.1725 16.2649C20.4917 16.2649 20.7853 16.2503 21.0533 16.2211C21.3844 16.1835 21.5795 16.1648 21.6386 16.1648C21.7134 16.1648 21.808 16.1752 21.9223 16.196L21.9282 16.3837C21.9282 16.4505 21.9204 16.5318 21.9046 16.6277L20.8641 16.8029C20.805 16.8113 20.7696 16.9093 20.7577 17.097C20.7459 17.2847 20.74 17.5078 20.74 17.7664L20.7459 18.0605L20.74 18.6236L20.7459 18.9489L20.7282 19.3743C20.7282 19.4286 20.7321 19.5266 20.74 19.6684C20.7479 19.8561 20.7518 20.0417 20.7518 20.2252C20.7518 20.3754 20.7479 20.5255 20.74 20.6757L20.7223 21.001L20.7341 22.0396ZM20.9233 14.6257C20.9233 14.4505 20.9804 14.3024 21.0947 14.1814C21.2129 14.0605 21.3568 14 21.5262 14C21.6681 14 21.7864 14.0396 21.8809 14.1189C21.9755 14.1981 22.0997 14.3858 22.2534 14.682C22.4623 15.0824 22.6928 15.2826 22.945 15.2826C23.1973 15.2826 23.4259 15.0824 23.6308 14.682C23.7648 14.4234 23.8811 14.2461 23.9796 14.1502C24.0821 14.0501 24.2121 14 24.3698 14C24.5353 14 24.6732 14.0626 24.7836 14.1877C24.8939 14.3087 24.9491 14.4546 24.9491 14.6257C24.9491 14.9635 24.754 15.2221 24.3638 15.4015C23.9737 15.5766 23.5067 15.6642 22.9628 15.6642C22.3716 15.6642 21.8829 15.5746 21.4967 15.3952C21.1144 15.2158 20.9233 14.9593 20.9233 14.6257Z" fill="white"/>
<path d="M28.7089 15.8519H29.0755C29.103 15.8978 29.1227 15.9312 29.1346 15.952C29.2449 16.1522 29.3297 16.2836 29.3888 16.3462C29.44 16.3629 29.71 16.3712 30.1987 16.3712C30.5021 16.3712 30.7721 16.3691 31.0086 16.365L31.1268 16.3462L31.8421 16.3399L33.1782 16.3525H35.0049L35.3536 16.2961C35.4049 16.2586 35.4601 16.1585 35.5192 15.9958C35.5349 15.9583 35.5566 15.9062 35.5842 15.8394L35.8443 15.8332C35.8837 15.8332 35.9428 15.8352 36.0217 15.8394C36.0256 16.1272 36.0276 16.561 36.0276 17.1408L36.0335 17.6976L36.0276 18.0167C36.0276 18.1251 36.0197 18.219 36.0039 18.2982C35.8423 18.3525 35.7005 18.3858 35.5783 18.3983C35.4758 18.2357 35.3635 18 35.2413 17.6913C35.1231 17.3827 35.0482 17.2117 35.0167 17.1783C34.9694 17.1241 34.9142 17.0886 34.8512 17.0719C34.7566 17.0511 34.3388 17.0407 33.5979 17.0407C33.4875 17.0407 33.3496 17.049 33.1841 17.0657C33.1604 17.2284 33.1486 17.3618 33.1486 17.4661L33.1545 18.3045V20.1439L33.1782 22.1272L33.1722 22.9406C33.1722 23.2284 33.1959 23.4453 33.2432 23.5912C33.3062 23.6204 33.4225 23.6475 33.592 23.6726C33.6235 23.6767 33.7693 23.7101 34.0294 23.7727C34.1477 23.8019 34.2521 23.8352 34.3428 23.8728C34.3625 24.0229 34.3723 24.1147 34.3723 24.1481C34.3723 24.1856 34.3664 24.2398 34.3546 24.3107C34.2679 24.3149 34.1969 24.317 34.1418 24.317C33.7358 24.317 33.391 24.3024 33.1072 24.2732C32.8235 24.2398 32.3091 24.2231 31.5643 24.2231C31.446 24.2231 31.0992 24.2482 30.5238 24.2982C30.2992 24.3149 30.1533 24.3233 30.0863 24.3233C30.0824 24.2607 30.0785 24.2127 30.0745 24.1794L30.0686 24.0355V23.9854C30.1553 23.8644 30.3189 23.7748 30.5593 23.7164C30.9692 23.6121 31.2529 23.5182 31.4106 23.4348C31.45 23.3556 31.4736 23.2513 31.4815 23.122C31.5091 22.6215 31.5229 21.8248 31.5229 20.732L31.4933 18.367C31.4933 17.7164 31.4815 17.3222 31.4579 17.1846C31.45 17.147 31.4362 17.1199 31.4165 17.1032C31.3968 17.0824 31.3692 17.0699 31.3337 17.0657C31.2115 17.049 30.8135 17.0407 30.1396 17.0407C29.7691 17.0407 29.5208 17.0782 29.3947 17.1533C29.2252 17.2576 28.971 17.5412 28.6321 18.0042C28.5335 18.1376 28.4606 18.2044 28.4133 18.2044C28.2321 18.1043 28.1158 18.0229 28.0646 17.9604C28.1867 17.6893 28.3562 17.147 28.573 16.3337C28.636 16.0959 28.6813 15.9353 28.7089 15.8519Z" fill="white"/>
<path d="M43.8901 19.537C44.2409 19.6538 44.5502 19.8582 44.8182 20.1502C45.0862 20.4421 45.4114 20.9447 45.7937 21.658C46.2429 22.4964 46.5819 23.0344 46.8105 23.2722C47.043 23.5057 47.3524 23.6809 47.7386 23.7977C47.8805 23.8394 47.9711 23.8728 48.0105 23.8978C48.0184 23.9729 48.0224 24.0313 48.0224 24.073C48.0224 24.123 48.0145 24.2002 47.9987 24.3045L47.3484 24.292L46.4558 24.2669C46.2311 24.2669 45.9355 24.2815 45.569 24.3107C45.3207 23.7435 44.9443 23.0156 44.4399 22.1272C43.9354 21.2346 43.565 20.7049 43.3285 20.5381C43.092 20.367 42.8496 20.2815 42.6014 20.2815C42.5856 20.4359 42.5777 20.5756 42.5777 20.7007L42.6073 21.5641C42.6151 21.7393 42.6191 21.9062 42.6191 22.0647L42.6073 22.8154L42.6191 23.0344L42.6309 23.4661C42.7097 23.562 42.9068 23.6538 43.2221 23.7414C43.3994 23.7914 43.5492 23.8582 43.6714 23.9416C43.6832 24.025 43.6891 24.0876 43.6891 24.1293C43.6891 24.1627 43.6852 24.2148 43.6773 24.2857C43.4999 24.2941 43.3561 24.2982 43.2457 24.2982C42.9541 24.2982 42.6349 24.2857 42.288 24.2607L41.892 24.2357L41.3599 24.2544L40.3135 24.2482L39.7519 24.2669L39.746 23.9166C39.7815 23.8874 39.9667 23.806 40.3017 23.6726L40.4554 23.6038C40.6288 23.5203 40.7451 23.4703 40.8042 23.4536C40.883 23.4035 40.9343 23.3347 40.9579 23.2471C40.9816 23.1554 40.9934 22.83 40.9934 22.2711L40.9756 21.6705L40.9816 20.3441L40.9756 19.4056L40.9875 19.1303L40.9756 18.3233L40.9934 18.0042C40.9934 17.5203 40.9638 17.1929 40.9047 17.0219C40.7825 16.9135 40.5461 16.8133 40.1953 16.7216C39.9864 16.6674 39.8445 16.6111 39.7697 16.5527L39.811 16.1648C39.8859 16.1522 39.9647 16.146 40.0475 16.146C40.3352 16.146 40.6209 16.1668 40.9047 16.2086C41.1924 16.2461 41.5609 16.2649 42.0102 16.2649L42.2644 16.2523L42.9738 16.2273C43.0802 16.2231 43.226 16.2127 43.4113 16.196L43.6182 16.1773L43.766 16.1835C43.7778 16.2169 43.7837 16.2628 43.7837 16.3212C43.7837 16.463 43.7778 16.5547 43.766 16.5965C43.5255 16.6924 43.2773 16.7633 43.0211 16.8092C42.824 16.8467 42.7019 16.8822 42.6546 16.9155C42.6073 16.9489 42.5836 17.024 42.5836 17.1408C42.5836 17.5579 42.5876 17.8332 42.5954 17.9666L42.6073 18.4984L42.5954 18.8989V19.3743L42.5895 19.9124C42.8221 19.8332 43.0487 19.7101 43.2694 19.5433C43.4901 19.3764 43.7679 18.9969 44.1029 18.4046C44.6783 17.3827 45.1611 16.7341 45.5513 16.4588C45.9454 16.1794 46.3395 16.0396 46.7336 16.0396C47.1277 16.0396 47.4272 16.146 47.6322 16.3587C47.8411 16.5673 47.9455 16.8175 47.9455 17.1095C47.9455 17.3264 47.8805 17.5182 47.7504 17.6851C47.6243 17.8519 47.4489 17.9353 47.2243 17.9353C47.0509 17.9353 46.9129 17.8978 46.8105 17.8227C46.7119 17.7435 46.5898 17.5933 46.4439 17.3723C46.3021 17.147 46.1602 17.0344 46.0183 17.0344C45.6872 17.0344 45.2596 17.5099 44.7355 18.4609C44.4281 19.0115 44.1463 19.3702 43.8901 19.537Z" fill="white"/>
<path d="M48.5189 20.1502C48.5189 19.633 48.6135 19.1137 48.8027 18.5923C48.9406 18.2169 49.1337 17.8728 49.382 17.56C49.6303 17.2471 49.9417 16.9698 50.3161 16.7278C50.6905 16.4818 51.0728 16.3066 51.4629 16.2023C51.8531 16.0938 52.2886 16.0396 52.7694 16.0396C53.5892 16.0396 54.3005 16.2023 54.9035 16.5276C55.5065 16.853 55.9814 17.293 56.3283 17.8478C56.7775 18.5693 57.0022 19.3264 57.0022 20.1189C57.0022 21.2993 56.6219 22.3107 55.8612 23.1533C55.1045 23.9958 54.0503 24.4171 52.6985 24.4171C52.3635 24.4171 52.0502 24.3942 51.7585 24.3483C51.5378 24.3149 51.3447 24.269 51.1792 24.2106C50.8797 24.1064 50.7122 24.0459 50.6767 24.0292C50.2471 23.7706 49.9023 23.5057 49.6422 23.2346C49.382 22.9635 49.1613 22.6569 48.98 22.3149C48.8815 22.123 48.7692 21.7769 48.6431 21.2763C48.5603 20.9552 48.5189 20.5798 48.5189 20.1502ZM52.5448 16.659C52.2019 16.659 51.8984 16.7445 51.6344 16.9155C51.3703 17.0824 51.1713 17.268 51.0373 17.4724C50.8127 17.8186 50.653 18.1981 50.5585 18.6111C50.4639 19.0198 50.4166 19.5182 50.4166 20.1064C50.4166 20.4651 50.4304 20.7216 50.458 20.8759C50.4658 20.926 50.4777 21.0115 50.4934 21.1324C50.5289 21.4411 50.5703 21.6663 50.6176 21.8081C50.787 22.3379 50.9072 22.6653 50.9782 22.7904C51.0964 23.0031 51.2718 23.2138 51.5043 23.4223C51.6226 23.5308 51.794 23.6309 52.0186 23.7226C52.2433 23.8102 52.4679 23.854 52.6926 23.854C53.1182 23.854 53.5123 23.7497 53.8749 23.5412C54.2414 23.3285 54.535 22.9698 54.7557 22.4651C54.9764 21.9604 55.0868 21.3034 55.0868 20.4943C55.0868 20.1606 55.0651 19.708 55.0218 19.1366L54.9922 19.0177C54.9804 18.9844 54.9607 18.8989 54.9331 18.7612C54.7873 18.0772 54.5075 17.5558 54.0936 17.1971C53.6838 16.8384 53.1675 16.659 52.5448 16.659Z" fill="white"/>
<path d="M57.954 24.2795C57.954 24.1543 57.9658 24.0063 57.9894 23.8352L58.7284 23.6976C58.819 23.6767 58.9274 23.6434 59.0535 23.5975L59.1304 22.0334C59.1146 21.4703 59.1067 21.049 59.1067 20.7696L59.1126 20.6194C59.1245 20.4484 59.1304 20.0188 59.1304 19.3306L59.1186 19.1491L59.1304 18.6236L59.1245 18.0792V17.8102C59.1245 17.5683 59.1067 17.2847 59.0713 16.9593C59.0673 16.9301 59.0516 16.8801 59.024 16.8092C58.9924 16.7967 58.957 16.7883 58.9176 16.7842C58.8821 16.78 58.8447 16.7737 58.8052 16.7654C58.6515 16.7362 58.488 16.7153 58.3146 16.7028L58.2259 16.6778C58.1195 16.6653 58.0387 16.6486 57.9835 16.6277C57.9717 16.5068 57.9658 16.4296 57.9658 16.3962C57.9658 16.3462 57.9776 16.2774 58.0013 16.1898C58.0801 16.1731 58.1904 16.1648 58.3323 16.1648C58.4742 16.1648 58.5727 16.1627 58.6279 16.1585C59.1087 16.2127 59.4654 16.2419 59.6979 16.2461C59.8043 16.2461 59.9107 16.2503 60.0171 16.2586C60.1275 16.2628 60.224 16.2649 60.3068 16.2649C60.4369 16.2649 60.7541 16.244 61.2586 16.2023C61.3413 16.1814 61.432 16.171 61.5305 16.171C61.6763 16.171 61.7985 16.1794 61.897 16.196C61.901 16.2836 61.903 16.3462 61.903 16.3837C61.903 16.4505 61.8951 16.5318 61.8793 16.6277L60.8389 16.8029C60.7522 16.8446 60.7088 16.9051 60.7088 16.9844L60.7265 17.2158L60.7324 17.316L60.7265 17.5912L60.7147 17.804V17.854C60.7187 17.8999 60.7206 17.9395 60.7206 17.9729L60.7147 18.7675C60.7187 18.8425 60.7206 18.8989 60.7206 18.9364C60.7206 18.9572 60.7167 19.024 60.7088 19.1366C60.7049 19.2033 60.7029 19.2722 60.7029 19.3431C60.7029 19.4056 60.7088 19.5537 60.7206 19.7873C60.831 19.8081 60.9236 19.8206 60.9985 19.8248L61.8734 19.8436H62.299L63.3631 19.8498L64.3977 19.8186C64.5317 19.8186 64.6736 19.804 64.8233 19.7748C64.8312 19.633 64.8371 19.2847 64.8411 18.7299L64.8529 18.4484L64.8174 17.3848L64.776 16.9468C64.7642 16.9176 64.7366 16.8905 64.6933 16.8655C64.5553 16.7821 64.2794 16.6882 63.8656 16.5839C63.7907 16.5673 63.7198 16.5464 63.6528 16.5214C63.6607 16.3754 63.6765 16.2565 63.7001 16.1648C63.7868 16.1606 63.84 16.1585 63.8597 16.1585L64.4332 16.1648C64.7997 16.2148 65.1721 16.2398 65.5505 16.2398C65.6372 16.2398 65.7061 16.2377 65.7574 16.2336L66.5259 16.2086C66.5968 16.2044 66.6658 16.2002 66.7328 16.196C66.8747 16.1627 67.0205 16.146 67.1703 16.146C67.2845 16.146 67.4225 16.1522 67.5841 16.1648C67.5801 16.3274 67.5703 16.4755 67.5545 16.609C67.1919 16.6882 66.9535 16.7466 66.8392 16.7842C66.7289 16.8175 66.6165 16.8655 66.5022 16.9281L66.4668 17.0532V17.1595L66.4727 17.3222L66.4668 17.4035C66.4589 17.4911 66.4549 17.5579 66.4549 17.6038V17.7602C66.4589 17.9479 66.4609 18.0521 66.4609 18.073V18.8676L66.4668 19.4682L66.4549 20.2628C66.451 20.4463 66.4569 20.8217 66.4727 21.3889V22.2774L66.4845 23.0156C66.4845 23.1533 66.4806 23.3201 66.4727 23.5162C66.5554 23.5412 66.6323 23.562 66.7032 23.5787C67.0737 23.6621 67.3535 23.7477 67.5427 23.8352L67.5604 24.2732C67.4028 24.2774 67.3102 24.2795 67.2826 24.2795C67.0934 24.2795 66.8766 24.2669 66.6323 24.2419C66.3091 24.2044 65.7889 24.1856 65.0716 24.1856C64.7484 24.1856 64.3307 24.2127 63.8183 24.2669C63.7632 24.2669 63.6962 24.2544 63.6173 24.2294C63.6213 24.0375 63.6311 23.902 63.6469 23.8227L64.1021 23.7101L64.5809 23.6288C64.6282 23.6163 64.6893 23.5975 64.7642 23.5725C64.8076 23.2346 64.8312 22.6736 64.8351 21.8895L64.8411 21.3577C64.8174 21.1366 64.8056 20.8717 64.8056 20.5631C64.6598 20.5506 64.5021 20.5422 64.3327 20.5381L61.5896 20.5068L61.5364 20.5005L61.4951 20.4943C61.4675 20.4943 61.4359 20.4964 61.4005 20.5005C61.298 20.5047 61.2113 20.5068 61.1404 20.5068H60.9748C60.8999 20.5068 60.8152 20.5214 60.7206 20.5506L60.697 21.0198V21.1011C60.7049 21.2138 60.7088 21.2868 60.7088 21.3201V23.2596C60.7088 23.3681 60.7147 23.4786 60.7265 23.5912L60.7857 23.6288L61.6547 23.7727C61.698 23.7894 61.7315 23.7998 61.7552 23.804C61.8064 23.8165 61.8498 23.8352 61.8852 23.8603C61.897 23.9562 61.903 24.0209 61.903 24.0542C61.903 24.1084 61.8951 24.1835 61.8793 24.2795C61.7374 24.2836 61.6172 24.2857 61.5187 24.2857C61.432 24.2857 61.3512 24.2836 61.2763 24.2795C61.2408 24.2795 61.2073 24.2774 61.1758 24.2732L60.3423 24.2357C60.1452 24.2148 59.8693 24.2044 59.5146 24.2044L59.3905 24.2106C59.225 24.219 59.1284 24.2252 59.1008 24.2294C58.8565 24.2628 58.4742 24.2795 57.954 24.2795Z" fill="white"/>
<path d="M69.5408 16.9155C69.4581 16.8863 69.3812 16.8655 69.3103 16.853C68.9398 16.7696 68.66 16.684 68.4708 16.5965L68.4531 16.1522H68.7368L68.9438 16.1585L69.3812 16.1898C69.7044 16.2273 70.2207 16.2461 70.9301 16.2461C71.1626 16.2461 71.3774 16.2377 71.5744 16.2211L72.1952 16.1648C72.2543 16.1648 72.3213 16.1752 72.3962 16.196C72.3962 16.3962 72.3883 16.5339 72.3725 16.609L71.9646 16.7091L71.7341 16.7466C71.4858 16.7883 71.3242 16.8238 71.2493 16.853C71.1981 17.0615 71.1725 18.3587 71.1725 20.7445L71.2079 23.4536C71.334 23.4703 71.4917 23.4786 71.6809 23.4786L74.4239 23.5162L74.613 23.5224C75.0111 23.5224 75.2397 23.5057 75.2988 23.4724L75.3224 22.3274L75.3106 19.1116L75.3047 17.3034C75.3047 17.0699 75.2988 16.9135 75.287 16.8342C75.2633 16.8092 75.1944 16.7904 75.0801 16.7779L74.814 16.7341C74.6958 16.7174 74.5855 16.6966 74.483 16.6715L74.2643 16.6277C74.2091 16.6152 74.1657 16.5965 74.1342 16.5714C74.1184 16.4755 74.1106 16.4108 74.1106 16.3775C74.1106 16.3191 74.1184 16.244 74.1342 16.1522L74.5007 16.146C74.6505 16.146 74.8633 16.1564 75.1392 16.1773L76.5048 16.2273C76.6585 16.2273 76.8398 16.2106 77.0487 16.1773L77.427 16.1522L78.0596 16.146C78.0596 16.2795 78.0477 16.4296 78.0241 16.5965L77.5275 16.684C77.2792 16.7299 77.092 16.7779 76.9659 16.8279L76.8831 18.3921L76.9127 19.6621L76.9009 20.0563L76.8831 21.8081L76.895 22.3462V22.6152C76.895 23.0782 76.9363 23.3806 77.0191 23.5224C77.1019 23.6642 77.2674 23.7727 77.5157 23.8478C77.6694 23.8978 77.7659 23.9666 77.8054 24.0542C77.8448 24.1376 77.8684 24.3983 77.8763 24.8363L77.9177 25.4682C77.9295 25.6267 77.9374 25.7914 77.9413 25.9625C77.8586 25.9833 77.7462 25.9958 77.6044 26C77.5334 25.8665 77.4625 25.7164 77.3915 25.5495C77.2102 25.1116 77.0506 24.8217 76.9127 24.6799C76.7787 24.5422 76.6151 24.4463 76.422 24.3921C76.2289 24.342 75.6042 24.2941 74.548 24.2482C73.4918 24.2023 72.4316 24.1794 71.3675 24.1794C70.3192 24.1794 69.5802 24.2044 69.1507 24.2544C68.9812 24.2753 68.863 24.2857 68.796 24.2857C68.7211 24.2857 68.5989 24.2774 68.4294 24.2607C68.4334 24.098 68.4432 23.9499 68.459 23.8165C68.9911 23.708 69.3418 23.6038 69.5113 23.5036C69.5467 23.4202 69.5645 23.1846 69.5645 22.7967C69.5645 22.7675 69.5625 22.7258 69.5586 22.6715L69.5527 22.3587L69.5467 20.9635L69.5527 19.8561L69.5408 19.0365L69.5467 18.1481L69.529 17.4161C69.529 17.2701 69.533 17.1032 69.5408 16.9155Z" fill="white"/>
<path d="M78.769 16.2023C78.9936 16.2148 79.1887 16.2336 79.3542 16.2586C79.6656 16.3045 80.0262 16.3274 80.436 16.3274C80.5779 16.3274 80.9425 16.3149 81.5297 16.2899C82.4086 16.2523 83.2027 16.2336 83.9121 16.2336L84.9821 16.2211C85.2225 16.2211 85.5772 16.2523 86.0462 16.3149C86.1172 16.3983 86.1526 16.5109 86.1526 16.6528V17.9416L86.1645 18.1981C86.1645 18.2231 86.1625 18.2607 86.1585 18.3107L85.9162 18.3233C85.8846 18.3233 85.8176 18.3191 85.7152 18.3107C85.6797 18.2273 85.6324 18.1043 85.5733 17.9416L85.3368 17.4974C85.2462 17.3097 85.1201 17.1178 84.9585 16.9218C84.8599 16.8926 84.7338 16.8759 84.5801 16.8717C84.5407 16.8676 84.4205 16.8571 84.2195 16.8405C83.853 16.8071 83.4589 16.7904 83.0372 16.7904C82.5564 16.7904 82.1268 16.7987 81.7484 16.8154C81.7366 16.9197 81.7307 17.3306 81.7307 18.048L81.7425 19.0991V19.8874C81.841 19.8999 81.9258 19.9062 81.9967 19.9062C82.7022 19.9062 83.2047 19.8916 83.5042 19.8624C83.8037 19.8332 83.989 19.7935 84.0599 19.7435C84.1308 19.6893 84.1939 19.5975 84.2491 19.4682C84.2845 19.3764 84.3535 19.0699 84.456 18.5485L84.5328 18.5422L84.8757 18.5485C84.8915 18.9197 84.8994 19.2013 84.8994 19.3931C84.8994 19.8311 84.8954 20.1126 84.8875 20.2377C84.8836 20.3629 84.8816 20.4609 84.8816 20.5318C84.8816 20.6444 84.8875 20.8259 84.8994 21.0761C84.9112 21.3222 84.9171 21.5057 84.9171 21.6267V21.7643H84.4974C84.4816 21.6976 84.452 21.56 84.4087 21.3514C84.3299 20.9635 84.2589 20.7216 84.1959 20.6257C84.1486 20.5506 84.0697 20.4943 83.9594 20.4567C83.8806 20.4275 83.5889 20.4129 83.0845 20.4129C82.4894 20.4129 82.042 20.4296 81.7425 20.463C81.7386 20.5714 81.7366 20.6423 81.7366 20.6757C81.7366 21.1721 81.7445 21.585 81.7603 21.9145L81.7484 23.2659C81.7484 23.4244 81.8016 23.5328 81.9081 23.5912C82.0696 23.6788 82.5642 23.7226 83.3919 23.7226C83.9397 23.7226 84.4047 23.6788 84.787 23.5912C85.0511 23.5287 85.2836 23.3889 85.4846 23.1721C85.7526 22.8926 85.9753 22.5005 86.1526 21.9958C86.2748 21.9833 86.3753 21.9771 86.4541 21.9771C86.4975 21.9771 86.5625 21.9791 86.6492 21.9833C86.6374 22.0876 86.6275 22.1752 86.6197 22.2461L86.5842 22.4338L86.3654 23.6163L86.259 24.3295C86.0029 24.342 85.7999 24.3483 85.6501 24.3483C85.4294 24.3483 84.8402 24.3274 83.8825 24.2857C83.2086 24.2565 82.3967 24.2419 81.4469 24.2419C80.974 24.2419 80.3927 24.2628 79.703 24.3045H79.4547L78.7394 24.3295V23.8978C78.8143 23.877 78.964 23.854 79.1887 23.829C79.5986 23.7789 79.8823 23.7122 80.04 23.6288C80.0833 23.5078 80.105 23.3556 80.105 23.1721C80.105 23.1011 80.103 22.9802 80.0991 22.8092L80.105 22.6152L80.0873 20.2565L80.0932 19.5495L80.0636 18.5485L80.0695 17.8415L80.0163 17.0657C80.0163 17.0448 80.0124 17.0031 80.0045 16.9406C79.9651 16.8947 79.906 16.8655 79.8271 16.853C79.7838 16.8446 79.7247 16.8321 79.6498 16.8154C79.4251 16.7654 79.2084 16.7362 78.9995 16.7278C78.9246 16.7237 78.8379 16.7153 78.7394 16.7028L78.769 16.2023Z" fill="white"/>
<path d="M87.4 16.6215L87.3941 16.146L88.807 16.2398L89.4395 16.2336H89.6701C89.9105 16.2336 90.2869 16.219 90.7992 16.1898C91.0908 16.1689 91.2741 16.1585 91.349 16.1585C91.8456 16.1585 92.22 16.1877 92.4722 16.2461C92.8584 16.3295 93.1639 16.463 93.3885 16.6465C93.6171 16.83 93.8122 17.0928 93.9738 17.4348C94.1393 17.7727 94.2221 18.0876 94.2221 18.3796C94.2221 19.1053 94.0053 19.6955 93.5718 20.1502C93.1422 20.6006 92.5983 20.8259 91.9402 20.8259C91.7116 20.8259 91.4928 20.7967 91.284 20.7383C91.079 20.6799 90.8859 20.5923 90.7046 20.4755C90.6849 20.3545 90.6751 20.1877 90.6751 19.975C90.7696 19.9833 90.8544 19.9896 90.9293 19.9937C91.0081 19.9979 91.077 20 91.1362 20C91.4712 20 91.753 19.902 91.9815 19.7059C92.285 19.4515 92.4367 19.0386 92.4367 18.4672C92.4367 18.0584 92.3697 17.7247 92.2357 17.4661C92.1057 17.2033 91.95 17.0261 91.7687 16.9343C91.5165 16.8092 91.2327 16.7466 90.9174 16.7466C90.6218 16.7466 90.411 16.7925 90.2849 16.8843C90.2534 16.9385 90.2297 16.9906 90.2139 17.0407L90.2553 19.9875L90.2435 20.2377L90.2612 20.5005C90.2652 20.5589 90.2672 20.6444 90.2672 20.757V21.2701L90.2731 22.0897L90.2612 23.0657C90.2612 23.2033 90.2731 23.3889 90.2967 23.6225L91.4731 23.7789C91.4889 23.879 91.4968 23.9583 91.4968 24.0167C91.4968 24.0792 91.4869 24.1668 91.4672 24.2795C91.3687 24.2961 91.2938 24.3045 91.2426 24.3045C91.1204 24.3045 90.8898 24.2899 90.5509 24.2607C90.212 24.2273 89.8257 24.2106 89.3922 24.2106C88.9035 24.2106 88.4385 24.244 87.9971 24.3107C87.9222 24.3233 87.804 24.3337 87.6424 24.342C87.6266 24.2211 87.6187 24.1314 87.6187 24.073C87.6187 24.0355 87.6227 23.9771 87.6305 23.8978L87.9912 23.7727C88.2394 23.6934 88.4542 23.5975 88.6355 23.4849C88.671 23.3639 88.6887 23.2534 88.6887 23.1533C88.6887 23.1116 88.6868 23.0636 88.6828 23.0094C88.6789 22.8801 88.6769 22.6986 88.6769 22.4651L88.6592 20.707L88.5941 18.7237C88.5666 17.781 88.5449 17.2722 88.5291 17.1971C88.5015 17.0761 88.4542 16.9823 88.3872 16.9155C88.3202 16.8446 88.2079 16.7946 88.0503 16.7654C87.7232 16.707 87.5064 16.659 87.4 16.6215Z" fill="white"/>
<path d="M95.1916 15.8519H95.5581C95.5857 15.8978 95.6054 15.9312 95.6172 15.952C95.7276 16.1522 95.8123 16.2836 95.8714 16.3462C95.9226 16.3629 96.1926 16.3712 96.6813 16.3712C96.9848 16.3712 97.2547 16.3691 97.4912 16.365L97.6094 16.3462L98.3248 16.3399L99.6608 16.3525H101.488L101.836 16.2961C101.888 16.2586 101.943 16.1585 102.002 15.9958C102.018 15.9583 102.039 15.9062 102.067 15.8394L102.327 15.8332C102.366 15.8332 102.425 15.8352 102.504 15.8394C102.508 16.1272 102.51 16.561 102.51 17.1408L102.516 17.6976L102.51 18.0167C102.51 18.1251 102.502 18.219 102.487 18.2982C102.325 18.3525 102.183 18.3858 102.061 18.3983C101.958 18.2357 101.846 18 101.724 17.6913C101.606 17.3827 101.531 17.2117 101.499 17.1783C101.452 17.1241 101.397 17.0886 101.334 17.0719C101.239 17.0511 100.821 17.0407 100.081 17.0407C99.9702 17.0407 99.8322 17.049 99.6667 17.0657C99.6431 17.2284 99.6312 17.3618 99.6312 17.4661L99.6371 18.3045V20.1439L99.6608 22.1272L99.6549 22.9406C99.6549 23.2284 99.6785 23.4453 99.7258 23.5912C99.7889 23.6204 99.9051 23.6475 100.075 23.6726C100.106 23.6767 100.252 23.7101 100.512 23.7727C100.63 23.8019 100.735 23.8352 100.825 23.8728C100.845 24.0229 100.855 24.1147 100.855 24.1481C100.855 24.1856 100.849 24.2398 100.837 24.3107C100.751 24.3149 100.68 24.317 100.624 24.317C100.218 24.317 99.8736 24.3024 99.5899 24.2732C99.3061 24.2398 98.7918 24.2231 98.0469 24.2231C97.9287 24.2231 97.5819 24.2482 97.0065 24.2982C96.7818 24.3149 96.636 24.3233 96.569 24.3233C96.565 24.2607 96.5611 24.2127 96.5572 24.1794L96.5513 24.0355V23.9854C96.638 23.8644 96.8015 23.7748 97.0419 23.7164C97.4518 23.6121 97.7356 23.5182 97.8932 23.4348C97.9326 23.3556 97.9563 23.2513 97.9641 23.122C97.9917 22.6215 98.0055 21.8248 98.0055 20.732L97.976 18.367C97.976 17.7164 97.9641 17.3222 97.9405 17.1846C97.9326 17.147 97.9188 17.1199 97.8991 17.1032C97.8794 17.0824 97.8518 17.0699 97.8164 17.0657C97.6942 17.049 97.2961 17.0407 96.6222 17.0407C96.2517 17.0407 96.0034 17.0782 95.8773 17.1533C95.7079 17.2576 95.4537 17.5412 95.1147 18.0042C95.0162 18.1376 94.9433 18.2044 94.896 18.2044C94.7147 18.1043 94.5984 18.0229 94.5472 17.9604C94.6694 17.6893 94.8388 17.147 95.0556 16.3337C95.1187 16.0959 95.164 15.9353 95.1916 15.8519Z" fill="white"/>
<path d="M103.261 24.2795C103.261 24.1543 103.273 24.0063 103.296 23.8352L104.035 23.6976C104.126 23.6767 104.234 23.6434 104.361 23.5975L104.437 22.0334C104.422 21.4703 104.414 21.049 104.414 20.7696L104.42 20.6194C104.432 20.4484 104.437 20.0188 104.437 19.3306L104.426 19.1491L104.437 18.6236L104.432 18.0792V17.8102C104.432 17.5683 104.414 17.2847 104.378 16.9593C104.374 16.9301 104.359 16.8801 104.331 16.8092C104.299 16.7967 104.264 16.7883 104.225 16.7842C104.189 16.78 104.152 16.7737 104.112 16.7654C103.959 16.7362 103.795 16.7153 103.622 16.7028L103.533 16.6778C103.427 16.6653 103.346 16.6486 103.291 16.6277C103.279 16.5068 103.273 16.4296 103.273 16.3962C103.273 16.3462 103.285 16.2774 103.308 16.1898C103.387 16.1731 103.497 16.1648 103.639 16.1648C103.781 16.1648 103.88 16.1627 103.935 16.1585C104.416 16.2127 104.772 16.2419 105.005 16.2461C105.111 16.2461 105.218 16.2503 105.324 16.2586C105.435 16.2628 105.531 16.2649 105.614 16.2649C105.744 16.2649 106.061 16.244 106.566 16.2023C106.648 16.1814 106.739 16.171 106.838 16.171C106.983 16.171 107.106 16.1794 107.204 16.196C107.208 16.2836 107.21 16.3462 107.21 16.3837C107.21 16.4505 107.202 16.5318 107.186 16.6277L106.146 16.8029C106.059 16.8446 106.016 16.9051 106.016 16.9844L106.034 17.2158L106.039 17.316L106.034 17.5912L106.022 17.804V17.854C106.026 17.8999 106.028 17.9395 106.028 17.9729L106.022 18.7675C106.026 18.8425 106.028 18.8989 106.028 18.9364C106.028 18.9572 106.024 19.024 106.016 19.1366C106.012 19.2033 106.01 19.2722 106.01 19.3431C106.01 19.4056 106.016 19.5537 106.028 19.7873C106.138 19.8081 106.231 19.8206 106.306 19.8248L107.18 19.8436H107.606L108.67 19.8498L109.705 19.8186C109.839 19.8186 109.981 19.804 110.13 19.7748C110.138 19.633 110.144 19.2847 110.148 18.7299L110.16 18.4484L110.124 17.3848L110.083 16.9468C110.071 16.9176 110.044 16.8905 110 16.8655C109.862 16.7821 109.586 16.6882 109.173 16.5839C109.098 16.5673 109.027 16.5464 108.96 16.5214C108.968 16.3754 108.983 16.2565 109.007 16.1648C109.094 16.1606 109.147 16.1585 109.167 16.1585L109.74 16.1648C110.107 16.2148 110.479 16.2398 110.857 16.2398C110.944 16.2398 111.013 16.2377 111.064 16.2336L111.833 16.2086C111.904 16.2044 111.973 16.2002 112.04 16.196C112.182 16.1627 112.328 16.146 112.477 16.146C112.592 16.146 112.73 16.1522 112.891 16.1648C112.887 16.3274 112.877 16.4755 112.862 16.609C112.499 16.6882 112.261 16.7466 112.146 16.7842C112.036 16.8175 111.924 16.8655 111.809 16.9281L111.774 17.0532V17.1595L111.78 17.3222L111.774 17.4035C111.766 17.4911 111.762 17.5579 111.762 17.6038V17.7602C111.766 17.9479 111.768 18.0521 111.768 18.073V18.8676L111.774 19.4682L111.762 20.2628C111.758 20.4463 111.764 20.8217 111.78 21.3889V22.2774L111.792 23.0156C111.792 23.1533 111.788 23.3201 111.78 23.5162C111.862 23.5412 111.939 23.562 112.01 23.5787C112.381 23.6621 112.661 23.7477 112.85 23.8352L112.867 24.2732C112.71 24.2774 112.617 24.2795 112.59 24.2795C112.4 24.2795 112.184 24.2669 111.939 24.2419C111.616 24.2044 111.096 24.1856 110.379 24.1856C110.055 24.1856 109.638 24.2127 109.125 24.2669C109.07 24.2669 109.003 24.2544 108.924 24.2294C108.928 24.0375 108.938 23.902 108.954 23.8227L109.409 23.7101L109.888 23.6288C109.935 23.6163 109.996 23.5975 110.071 23.5725C110.115 23.2346 110.138 22.6736 110.142 21.8895L110.148 21.3577C110.124 21.1366 110.113 20.8717 110.113 20.5631C109.967 20.5506 109.809 20.5422 109.64 20.5381L106.897 20.5068L106.843 20.5005L106.802 20.4943C106.775 20.4943 106.743 20.4964 106.708 20.5005C106.605 20.5047 106.518 20.5068 106.447 20.5068H106.282C106.207 20.5068 106.122 20.5214 106.028 20.5506L106.004 21.0198V21.1011C106.012 21.2138 106.016 21.2868 106.016 21.3201V23.2596C106.016 23.3681 106.022 23.4786 106.034 23.5912L106.093 23.6288L106.962 23.7727C107.005 23.7894 107.039 23.7998 107.062 23.804C107.113 23.8165 107.157 23.8352 107.192 23.8603C107.204 23.9562 107.21 24.0209 107.21 24.0542C107.21 24.1084 107.202 24.1835 107.186 24.2795C107.044 24.2836 106.924 24.2857 106.826 24.2857C106.739 24.2857 106.658 24.2836 106.583 24.2795C106.548 24.2795 106.514 24.2774 106.483 24.2732L105.649 24.2357C105.452 24.2148 105.176 24.2044 104.822 24.2044L104.698 24.2106C104.532 24.219 104.435 24.2252 104.408 24.2294C104.164 24.2628 103.781 24.2795 103.261 24.2795Z" fill="white"/>
<path d="M113.89 20.1502C113.89 19.633 113.985 19.1137 114.174 18.5923C114.312 18.2169 114.505 17.8728 114.753 17.56C115.002 17.2471 115.313 16.9698 115.687 16.7278C116.062 16.4818 116.444 16.3066 116.834 16.2023C117.224 16.0938 117.66 16.0396 118.141 16.0396C118.96 16.0396 119.672 16.2023 120.275 16.5276C120.878 16.853 121.353 17.293 121.7 17.8478C122.149 18.5693 122.373 19.3264 122.373 20.1189C122.373 21.2993 121.993 22.3107 121.232 23.1533C120.476 23.9958 119.422 24.4171 118.07 24.4171C117.735 24.4171 117.421 24.3942 117.13 24.3483C116.909 24.3149 116.716 24.269 116.55 24.2106C116.251 24.1064 116.083 24.0459 116.048 24.0292C115.618 23.7706 115.274 23.5057 115.013 23.2346C114.753 22.9635 114.533 22.6569 114.351 22.3149C114.253 22.123 114.14 21.7769 114.014 21.2763C113.932 20.9552 113.89 20.5798 113.89 20.1502ZM117.916 16.659C117.573 16.659 117.27 16.7445 117.006 16.9155C116.742 17.0824 116.543 17.268 116.409 17.4724C116.184 17.8186 116.024 18.1981 115.93 18.6111C115.835 19.0198 115.788 19.5182 115.788 20.1064C115.788 20.4651 115.802 20.7216 115.829 20.8759C115.837 20.926 115.849 21.0115 115.865 21.1324C115.9 21.4411 115.942 21.6663 115.989 21.8081C116.158 22.3379 116.279 22.6653 116.349 22.7904C116.468 23.0031 116.643 23.2138 116.876 23.4223C116.994 23.5308 117.165 23.6309 117.39 23.7226C117.615 23.8102 117.839 23.854 118.064 23.854C118.489 23.854 118.884 23.7497 119.246 23.5412C119.613 23.3285 119.906 22.9698 120.127 22.4651C120.348 21.9604 120.458 21.3034 120.458 20.4943C120.458 20.1606 120.436 19.708 120.393 19.1366L120.363 19.0177C120.352 18.9844 120.332 18.8989 120.304 18.7612C120.159 18.0772 119.879 17.5558 119.465 17.1971C119.055 16.8384 118.539 16.659 117.916 16.659Z" fill="white"/>
<path d="M126.423 21.1262H128.285L129.231 21.1137C129.361 21.1137 129.481 21.122 129.592 21.1387C129.603 21.3347 129.615 21.4807 129.627 21.5766L129.633 21.683L129.609 22.0083C129.605 22.0584 129.603 22.121 129.603 22.196V22.3087L126.399 22.3149C126.395 22.194 126.393 22.1022 126.393 22.0396C126.393 21.9353 126.397 21.8186 126.405 21.6893C126.409 21.6225 126.411 21.5746 126.411 21.5454L126.405 21.2325L126.423 21.1262Z" fill="white"/>
<path d="M138.855 19.8874C138.812 18.7821 138.603 17.9687 138.229 17.4473C137.854 16.9218 137.294 16.659 136.55 16.659C136.1 16.659 135.683 16.7675 135.296 16.9844C134.914 17.1971 134.512 17.6204 134.09 18.2544H133.552C133.56 17.7623 133.702 17.147 133.978 16.4088C134.739 16.1502 135.631 16.0209 136.656 16.0209C137.961 16.0209 138.96 16.4171 139.653 17.2096C140.347 17.9979 140.694 18.999 140.694 20.2127C140.694 21.5683 140.302 22.609 139.517 23.3347C138.737 24.0605 137.696 24.4234 136.396 24.4234C135.265 24.4234 134.392 24.2273 133.777 23.8352C133.604 23.1637 133.487 22.5735 133.428 22.0647C133.665 22.0647 133.856 22.0813 134.002 22.1147C134.573 23.2534 135.365 23.8227 136.378 23.8227C137.103 23.8227 137.7 23.5495 138.169 23.0031C138.642 22.4526 138.879 21.5975 138.879 20.438L138.583 20.4442C138.528 20.4442 138.432 20.44 138.294 20.4317L137.371 20.4129C136.772 20.4129 136.425 20.4526 136.331 20.5318C136.24 20.6111 136.148 20.8843 136.053 21.3514L135.964 21.7643H135.545L135.551 21.3014L135.58 20.5506L135.574 20.3316L135.562 19.4432C135.562 19.1887 135.57 18.8905 135.586 18.5485L135.917 18.5422C135.933 18.5422 135.962 18.5443 136.006 18.5485C136.112 19.2117 136.232 19.6038 136.366 19.7247C136.504 19.8457 137.19 19.9062 138.424 19.9062L138.855 19.8874Z" fill="white"/>
<path d="M145.713 19.537C146.063 19.6538 146.373 19.8582 146.641 20.1502C146.909 20.4421 147.234 20.9447 147.616 21.658C148.066 22.4964 148.404 23.0344 148.633 23.2722C148.866 23.5057 149.175 23.6809 149.561 23.7977C149.703 23.8394 149.794 23.8728 149.833 23.8978C149.841 23.9729 149.845 24.0313 149.845 24.073C149.845 24.123 149.837 24.2002 149.821 24.3045L149.171 24.292L148.278 24.2669C148.054 24.2669 147.758 24.2815 147.392 24.3107C147.143 23.7435 146.767 23.0156 146.262 22.1272C145.758 21.2346 145.388 20.7049 145.151 20.5381C144.915 20.367 144.672 20.2815 144.424 20.2815C144.408 20.4359 144.4 20.5756 144.4 20.7007L144.43 21.5641C144.438 21.7393 144.442 21.9062 144.442 22.0647L144.43 22.8154L144.442 23.0344L144.454 23.4661C144.532 23.562 144.729 23.6538 145.045 23.7414C145.222 23.7914 145.372 23.8582 145.494 23.9416C145.506 24.025 145.512 24.0876 145.512 24.1293C145.512 24.1627 145.508 24.2148 145.5 24.2857C145.323 24.2941 145.179 24.2982 145.068 24.2982C144.777 24.2982 144.457 24.2857 144.111 24.2607L143.715 24.2357L143.183 24.2544L142.136 24.2482L141.575 24.2669L141.569 23.9166C141.604 23.8874 141.789 23.806 142.124 23.6726L142.278 23.6038C142.451 23.5203 142.568 23.4703 142.627 23.4536C142.706 23.4035 142.757 23.3347 142.781 23.2471C142.804 23.1554 142.816 22.83 142.816 22.2711L142.798 21.6705L142.804 20.3441L142.798 19.4056L142.81 19.1303L142.798 18.3233L142.816 18.0042C142.816 17.5203 142.786 17.1929 142.727 17.0219C142.605 16.9135 142.369 16.8133 142.018 16.7216C141.809 16.6674 141.667 16.6111 141.592 16.5527L141.634 16.1648C141.709 16.1522 141.787 16.146 141.87 16.146C142.158 16.146 142.444 16.1668 142.727 16.2086C143.015 16.2461 143.384 16.2649 143.833 16.2649L144.087 16.2523L144.796 16.2273C144.903 16.2231 145.049 16.2127 145.234 16.196L145.441 16.1773L145.589 16.1835C145.6 16.2169 145.606 16.2628 145.606 16.3212C145.606 16.463 145.6 16.5547 145.589 16.5965C145.348 16.6924 145.1 16.7633 144.844 16.8092C144.647 16.8467 144.524 16.8822 144.477 16.9155C144.43 16.9489 144.406 17.024 144.406 17.1408C144.406 17.5579 144.41 17.8332 144.418 17.9666L144.43 18.4984L144.418 18.8989V19.3743L144.412 19.9124C144.645 19.8332 144.871 19.7101 145.092 19.5433C145.313 19.3764 145.591 18.9969 145.926 18.4046C146.501 17.3827 146.984 16.7341 147.374 16.4588C147.768 16.1794 148.162 16.0396 148.556 16.0396C148.95 16.0396 149.25 16.146 149.455 16.3587C149.664 16.5673 149.768 16.8175 149.768 17.1095C149.768 17.3264 149.703 17.5182 149.573 17.6851C149.447 17.8519 149.272 17.9353 149.047 17.9353C148.873 17.9353 148.736 17.8978 148.633 17.8227C148.535 17.7435 148.412 17.5933 148.267 17.3723C148.125 17.147 147.983 17.0344 147.841 17.0344C147.51 17.0344 147.082 17.5099 146.558 18.4609C146.251 19.0115 145.969 19.3702 145.713 19.537Z" fill="white"/>
<path d="M157.075 16.3337C157.126 16.4588 157.231 16.8154 157.388 17.4035C157.459 17.6705 157.497 17.9541 157.501 18.2544H156.963C156.584 17.6872 156.194 17.2805 155.792 17.0344C155.39 16.7842 154.941 16.659 154.444 16.659C153.833 16.659 153.341 16.9114 152.966 17.4161C152.458 18.1001 152.204 19.0532 152.204 20.2753C152.204 20.9844 152.247 21.4891 152.334 21.7894C152.476 22.2774 152.655 22.6757 152.872 22.9844C153.037 23.2179 153.254 23.4035 153.522 23.5412C153.869 23.7289 154.239 23.8227 154.633 23.8227C155.067 23.8227 155.485 23.6809 155.887 23.3973C156.293 23.1095 156.681 22.682 157.051 22.1147C157.197 22.0855 157.388 22.0688 157.625 22.0647C157.609 22.2231 157.583 22.3879 157.548 22.5589C157.536 22.6257 157.491 22.8905 157.412 23.3535L157.359 23.5412L157.276 23.8352C157.036 24.0313 156.697 24.1794 156.259 24.2795C155.826 24.3754 155.292 24.4234 154.657 24.4234C154.172 24.4234 153.713 24.3754 153.28 24.2795C152.85 24.1835 152.482 24.0313 152.174 23.8227C151.725 23.5224 151.372 23.1971 151.116 22.8467C150.86 22.4964 150.669 22.1147 150.543 21.7018C150.42 21.2888 150.359 20.8259 150.359 20.3128C150.359 19.0699 150.746 18.0438 151.518 17.2346C152.294 16.4254 153.284 16.0209 154.486 16.0209C154.974 16.0209 155.433 16.048 155.863 16.1022C156.297 16.1522 156.701 16.2294 157.075 16.3337Z" fill="white"/>
<path d="M162.478 19.537C162.829 19.6538 163.138 19.8582 163.406 20.1502C163.674 20.4421 163.999 20.9447 164.382 21.658C164.831 22.4964 165.17 23.0344 165.399 23.2722C165.631 23.5057 165.94 23.6809 166.327 23.7977C166.469 23.8394 166.559 23.8728 166.599 23.8978C166.607 23.9729 166.61 24.0313 166.61 24.073C166.61 24.123 166.603 24.2002 166.587 24.3045L165.937 24.292L165.044 24.2669C164.819 24.2669 164.524 24.2815 164.157 24.3107C163.909 23.7435 163.532 23.0156 163.028 22.1272C162.524 21.2346 162.153 20.7049 161.917 20.5381C161.68 20.367 161.438 20.2815 161.189 20.2815C161.174 20.4359 161.166 20.5756 161.166 20.7007L161.195 21.5641C161.203 21.7393 161.207 21.9062 161.207 22.0647L161.195 22.8154L161.207 23.0344L161.219 23.4661C161.298 23.562 161.495 23.6538 161.81 23.7414C161.988 23.7914 162.137 23.8582 162.259 23.9416C162.271 24.025 162.277 24.0876 162.277 24.1293C162.277 24.1627 162.273 24.2148 162.265 24.2857C162.088 24.2941 161.944 24.2982 161.834 24.2982C161.542 24.2982 161.223 24.2857 160.876 24.2607L160.48 24.2357L159.948 24.2544L158.902 24.2482L158.34 24.2669L158.334 23.9166C158.37 23.8874 158.555 23.806 158.89 23.6726L159.044 23.6038C159.217 23.5203 159.333 23.4703 159.392 23.4536C159.471 23.4035 159.522 23.3347 159.546 23.2471C159.57 23.1554 159.581 22.83 159.581 22.2711L159.564 21.6705L159.57 20.3441L159.564 19.4056L159.576 19.1303L159.564 18.3233L159.581 18.0042C159.581 17.5203 159.552 17.1929 159.493 17.0219C159.371 16.9135 159.134 16.8133 158.783 16.7216C158.575 16.6674 158.433 16.6111 158.358 16.5527L158.399 16.1648C158.474 16.1522 158.553 16.146 158.636 16.146C158.923 16.146 159.209 16.1668 159.493 16.2086C159.781 16.2461 160.149 16.2649 160.598 16.2649L160.852 16.2523L161.562 16.2273C161.668 16.2231 161.814 16.2127 161.999 16.196L162.206 16.1773L162.354 16.1835C162.366 16.2169 162.372 16.2628 162.372 16.3212C162.372 16.463 162.366 16.5547 162.354 16.5965C162.114 16.6924 161.865 16.7633 161.609 16.8092C161.412 16.8467 161.29 16.8822 161.243 16.9155C161.195 16.9489 161.172 17.024 161.172 17.1408C161.172 17.5579 161.176 17.8332 161.184 17.9666L161.195 18.4984L161.184 18.8989V19.3743L161.178 19.9124C161.41 19.8332 161.637 19.7101 161.857 19.5433C162.078 19.3764 162.356 18.9969 162.691 18.4046C163.266 17.3827 163.749 16.7341 164.139 16.4588C164.533 16.1794 164.928 16.0396 165.322 16.0396C165.716 16.0396 166.015 16.146 166.22 16.3587C166.429 16.5673 166.534 16.8175 166.534 17.1095C166.534 17.3264 166.469 17.5182 166.339 17.6851C166.212 17.8519 166.037 17.9353 165.812 17.9353C165.639 17.9353 165.501 17.8978 165.399 17.8227C165.3 17.7435 165.178 17.5933 165.032 17.3723C164.89 17.147 164.748 17.0344 164.606 17.0344C164.275 17.0344 163.848 17.5099 163.324 18.4609C163.016 19.0115 162.734 19.3702 162.478 19.537Z" fill="white"/>
<path d="M170.636 22.5652C170.601 22.3316 170.23 21.6955 169.525 20.6569C169.3 20.3274 169.091 20.0021 168.898 19.6809C168.551 19.1011 168.207 18.5547 167.864 18.0417L167.71 17.7789C167.537 17.4786 167.342 17.1825 167.125 16.8905C167.042 16.8029 166.89 16.7383 166.67 16.6966L166.581 16.6715C166.49 16.6465 166.423 16.6298 166.38 16.6215C166.36 16.5839 166.35 16.5506 166.35 16.5214C166.35 16.4964 166.352 16.4651 166.356 16.4275C166.36 16.3858 166.364 16.3253 166.368 16.2461C166.427 16.2211 166.543 16.2086 166.717 16.2086L167.107 16.196C167.123 16.2002 167.143 16.2044 167.166 16.2086C167.265 16.2252 167.334 16.2336 167.373 16.2336C167.381 16.2336 167.401 16.2315 167.432 16.2273C167.842 16.2941 168.392 16.3274 169.082 16.3274C169.397 16.3274 169.706 16.3045 170.01 16.2586C170.053 16.2503 170.087 16.2461 170.11 16.2461C170.114 16.2461 170.128 16.2482 170.152 16.2523C170.171 16.3066 170.181 16.3483 170.181 16.3775C170.181 16.3858 170.179 16.4108 170.175 16.4526C170.171 16.4818 170.169 16.5047 170.169 16.5214L170.175 16.7028C170.096 16.7362 169.988 16.7654 169.85 16.7904L169.584 16.8405C169.458 16.8655 169.326 16.8884 169.188 16.9093C169.156 16.9135 169.141 16.9489 169.141 17.0156C169.196 17.1533 169.314 17.366 169.495 17.6538L169.655 17.9291L169.968 18.3983L170.796 19.7497L171.405 20.9135L172.966 17.4098C173.084 17.1429 173.143 16.9885 173.143 16.9468C173.143 16.83 173.015 16.7716 172.759 16.7716L172.54 16.7278C172.445 16.7112 172.382 16.6986 172.351 16.6903C172.343 16.6611 172.331 16.5068 172.315 16.2273C172.382 16.2273 172.552 16.2398 172.824 16.2649L173.527 16.2961L173.675 16.3212H173.959L174.059 16.3149C174.142 16.3024 174.223 16.2941 174.302 16.2899L174.497 16.2711L174.55 16.2649C174.609 16.2607 174.666 16.2544 174.721 16.2461L174.715 16.7153L174.639 16.7404C174.311 16.7862 174.077 16.8571 173.935 16.9531C173.797 17.049 173.637 17.3034 173.456 17.7164L171.369 22.44C170.77 23.7998 169.964 24.4797 168.951 24.4797C168.549 24.4797 168.228 24.3754 167.988 24.1668C167.747 23.9583 167.627 23.708 167.627 23.4161C167.627 23.1908 167.698 22.9969 167.84 22.8342C167.982 22.6674 168.171 22.5839 168.408 22.5839C168.53 22.5839 168.648 22.6111 168.762 22.6653C168.881 22.7153 169.024 22.8759 169.194 23.147C169.336 23.3681 169.48 23.4786 169.625 23.4786C170 23.4786 170.337 23.1741 170.636 22.5652Z" fill="white"/>
<path d="M174.81 16.6215L174.804 16.146L176.217 16.2398L176.849 16.2336H177.08C177.32 16.2336 177.697 16.219 178.209 16.1898C178.501 16.1689 178.684 16.1585 178.759 16.1585C179.256 16.1585 179.63 16.1877 179.882 16.2461C180.268 16.3295 180.574 16.463 180.798 16.6465C181.027 16.83 181.222 17.0928 181.384 17.4348C181.549 17.7727 181.632 18.0876 181.632 18.3796C181.632 19.1053 181.415 19.6955 180.982 20.1502C180.552 20.6006 180.008 20.8259 179.35 20.8259C179.122 20.8259 178.903 20.7967 178.694 20.7383C178.489 20.6799 178.296 20.5923 178.115 20.4755C178.095 20.3545 178.085 20.1877 178.085 19.975C178.18 19.9833 178.264 19.9896 178.339 19.9937C178.418 19.9979 178.487 20 178.546 20C178.881 20 179.163 19.902 179.391 19.7059C179.695 19.4515 179.847 19.0386 179.847 18.4672C179.847 18.0584 179.78 17.7247 179.646 17.4661C179.516 17.2033 179.36 17.0261 179.179 16.9343C178.926 16.8092 178.643 16.7466 178.327 16.7466C178.032 16.7466 177.821 16.7925 177.695 16.8843C177.663 16.9385 177.64 16.9906 177.624 17.0407L177.665 19.9875L177.653 20.2377L177.671 20.5005C177.675 20.5589 177.677 20.6444 177.677 20.757V21.2701L177.683 22.0897L177.671 23.0657C177.671 23.2033 177.683 23.3889 177.707 23.6225L178.883 23.7789C178.899 23.879 178.907 23.9583 178.907 24.0167C178.907 24.0792 178.897 24.1668 178.877 24.2795C178.779 24.2961 178.704 24.3045 178.653 24.3045C178.53 24.3045 178.3 24.2899 177.961 24.2607C177.622 24.2273 177.236 24.2106 176.802 24.2106C176.313 24.2106 175.848 24.244 175.407 24.3107C175.332 24.3233 175.214 24.3337 175.052 24.342C175.037 24.2211 175.029 24.1314 175.029 24.073C175.029 24.0355 175.033 23.9771 175.04 23.8978L175.401 23.7727C175.649 23.6934 175.864 23.5975 176.045 23.4849C176.081 23.3639 176.099 23.2534 176.099 23.1533C176.099 23.1116 176.097 23.0636 176.093 23.0094C176.089 22.8801 176.087 22.6986 176.087 22.4651L176.069 20.707L176.004 18.7237C175.977 17.781 175.955 17.2722 175.939 17.1971C175.911 17.0761 175.864 16.9823 175.797 16.9155C175.73 16.8446 175.618 16.7946 175.46 16.7654C175.133 16.707 174.916 16.659 174.81 16.6215Z" fill="white"/>
<path d="M189.234 16.3337C189.286 16.4588 189.39 16.8154 189.548 17.4035C189.619 17.6705 189.656 17.9541 189.66 18.2544H189.122C188.744 17.6872 188.354 17.2805 187.952 17.0344C187.55 16.7842 187.1 16.659 186.604 16.659C185.993 16.659 185.5 16.9114 185.126 17.4161C184.617 18.1001 184.363 19.0532 184.363 20.2753C184.363 20.9844 184.407 21.4891 184.493 21.7894C184.635 22.2774 184.814 22.6757 185.031 22.9844C185.197 23.2179 185.414 23.4035 185.682 23.5412C186.028 23.7289 186.399 23.8227 186.793 23.8227C187.226 23.8227 187.644 23.6809 188.046 23.3973C188.452 23.1095 188.84 22.682 189.211 22.1147C189.357 22.0855 189.548 22.0688 189.784 22.0647C189.768 22.2231 189.743 22.3879 189.707 22.5589C189.696 22.6257 189.65 22.8905 189.571 23.3535L189.518 23.5412L189.435 23.8352C189.195 24.0313 188.856 24.1794 188.419 24.2795C187.985 24.3754 187.451 24.4234 186.817 24.4234C186.332 24.4234 185.873 24.3754 185.439 24.2795C185.01 24.1835 184.641 24.0313 184.334 23.8227C183.884 23.5224 183.532 23.1971 183.275 22.8467C183.019 22.4964 182.828 22.1147 182.702 21.7018C182.58 21.2888 182.519 20.8259 182.519 20.3128C182.519 19.0699 182.905 18.0438 183.677 17.2346C184.454 16.4254 185.443 16.0209 186.645 16.0209C187.134 16.0209 187.593 16.048 188.023 16.1022C188.456 16.1522 188.86 16.2294 189.234 16.3337Z" fill="white"/>
<path d="M193.308 22.0396C195.404 19.7998 196.776 18.2878 197.422 17.5036C197.422 17.195 197.412 17.0177 197.393 16.9718C197.373 16.9218 197.308 16.8697 197.197 16.8154C197.087 16.757 196.872 16.6882 196.553 16.609C196.399 16.5714 196.299 16.5422 196.252 16.5214C196.259 16.367 196.275 16.2482 196.299 16.1648L196.464 16.1585C196.795 16.1585 197.016 16.1648 197.127 16.1773C197.438 16.219 197.749 16.2398 198.061 16.2398C198.565 16.2398 199.026 16.2169 199.444 16.171C199.598 16.1543 199.72 16.146 199.81 16.146C199.897 16.146 200.021 16.1522 200.183 16.1648C200.179 16.3316 200.169 16.4797 200.153 16.609C199.704 16.7091 199.408 16.7904 199.267 16.853C199.129 16.9114 199.06 17.0177 199.06 17.1721V18.0792L199.066 19.4682L199.054 20.2628L199.071 21.3889V22.2774L199.083 23.0156C199.083 23.1616 199.079 23.3285 199.071 23.5162C199.154 23.5412 199.231 23.562 199.302 23.5787C199.672 23.6621 199.952 23.7477 200.141 23.8352L200.159 24.2732L199.905 24.2795C199.838 24.2795 199.761 24.2753 199.674 24.2669L199.231 24.2419C198.908 24.2044 198.392 24.1856 197.682 24.1856C197.32 24.1856 197.042 24.1981 196.849 24.2231C196.6 24.2523 196.451 24.2669 196.399 24.2669C196.356 24.2669 196.295 24.2544 196.216 24.2294C196.22 24.0292 196.23 23.8936 196.246 23.8227L196.648 23.7226L196.878 23.6788C197.127 23.6371 197.288 23.6017 197.363 23.5725C197.414 23.2638 197.44 22.5255 197.44 21.3577L197.434 19.512L197.446 18.3483L193.308 22.8592C193.312 23.3264 193.317 23.5704 193.325 23.5912C193.349 23.6204 193.418 23.6413 193.532 23.6538L193.916 23.7164C194.255 23.7831 194.445 23.8311 194.484 23.8603C194.496 23.9562 194.502 24.0209 194.502 24.0542C194.502 24.1084 194.494 24.1835 194.478 24.2795L194.112 24.2857C193.962 24.2857 193.751 24.2732 193.479 24.2482L193.036 24.2419L192.734 24.2231L192.196 24.2044C192.023 24.2044 191.812 24.2169 191.564 24.2419C191.311 24.2669 190.974 24.2795 190.553 24.2795C190.553 24.1502 190.565 24.0021 190.588 23.8352C190.624 23.8269 190.706 23.8144 190.836 23.7977L191.091 23.7477C191.339 23.7018 191.526 23.6517 191.652 23.5975C191.692 22.8092 191.711 22.121 191.711 21.5328V20.7007L191.729 18.586C191.729 17.9479 191.707 17.3994 191.664 16.9406C191.66 16.9155 191.646 16.8717 191.623 16.8092C191.599 16.7967 191.564 16.7883 191.516 16.7842C191.481 16.78 191.443 16.7737 191.404 16.7654C191.223 16.732 191.059 16.7112 190.913 16.7028L190.825 16.6778C190.714 16.6653 190.634 16.6486 190.582 16.6277C190.57 16.5068 190.565 16.4296 190.565 16.3962C190.565 16.3462 190.576 16.2774 190.6 16.1898C190.687 16.1689 190.779 16.1585 190.878 16.1585C191.166 16.1585 191.501 16.1773 191.883 16.2148C192.23 16.2482 192.517 16.2649 192.746 16.2649C193.065 16.2649 193.359 16.2503 193.627 16.2211C193.958 16.1835 194.153 16.1648 194.212 16.1648C194.287 16.1648 194.382 16.1752 194.496 16.196L194.502 16.3837C194.502 16.4505 194.494 16.5318 194.478 16.6277L193.438 16.8029C193.379 16.8113 193.343 16.9093 193.331 17.097C193.319 17.2847 193.313 17.5078 193.313 17.7664L193.319 18.0605L193.313 18.6236L193.319 18.9489L193.302 19.3743C193.302 19.4286 193.306 19.5266 193.313 19.6684C193.321 19.8561 193.325 20.0417 193.325 20.2252C193.325 20.3754 193.321 20.5255 193.313 20.6757L193.296 21.001L193.308 22.0396Z" fill="white"/>
<path d="M201.182 20.1502C201.182 19.633 201.277 19.1137 201.466 18.5923C201.604 18.2169 201.797 17.8728 202.045 17.56C202.293 17.2471 202.605 16.9698 202.979 16.7278C203.353 16.4818 203.736 16.3066 204.126 16.2023C204.516 16.0938 204.952 16.0396 205.432 16.0396C206.252 16.0396 206.964 16.2023 207.567 16.5276C208.17 16.853 208.644 17.293 208.991 17.8478C209.441 18.5693 209.665 19.3264 209.665 20.1189C209.665 21.2993 209.285 22.3107 208.524 23.1533C207.768 23.9958 206.713 24.4171 205.361 24.4171C205.026 24.4171 204.713 24.3942 204.422 24.3483C204.201 24.3149 204.008 24.269 203.842 24.2106C203.543 24.1064 203.375 24.0459 203.34 24.0292C202.91 23.7706 202.565 23.5057 202.305 23.2346C202.045 22.9635 201.824 22.6569 201.643 22.3149C201.544 22.123 201.432 21.7769 201.306 21.2763C201.223 20.9552 201.182 20.5798 201.182 20.1502ZM205.208 16.659C204.865 16.659 204.561 16.7445 204.297 16.9155C204.033 17.0824 203.834 17.268 203.7 17.4724C203.476 17.8186 203.316 18.1981 203.221 18.6111C203.127 19.0198 203.08 19.5182 203.08 20.1064C203.08 20.4651 203.093 20.7216 203.121 20.8759C203.129 20.926 203.141 21.0115 203.156 21.1324C203.192 21.4411 203.233 21.6663 203.281 21.8081C203.45 22.3379 203.57 22.6653 203.641 22.7904C203.759 23.0031 203.935 23.2138 204.167 23.4223C204.286 23.5308 204.457 23.6309 204.682 23.7226C204.906 23.8102 205.131 23.854 205.356 23.854C205.781 23.854 206.175 23.7497 206.538 23.5412C206.904 23.3285 207.198 22.9698 207.419 22.4651C207.639 21.9604 207.75 21.3034 207.75 20.4943C207.75 20.1606 207.728 19.708 207.685 19.1366L207.655 19.0177C207.643 18.9844 207.624 18.8989 207.596 18.7612C207.45 18.0772 207.17 17.5558 206.757 17.1971C206.347 16.8384 205.83 16.659 205.208 16.659Z" fill="white"/>
<path d="M210.617 24.2795C210.617 24.1543 210.629 24.0063 210.652 23.8352L211.391 23.6976C211.482 23.6767 211.59 23.6434 211.717 23.5975L211.793 22.0334C211.778 21.4703 211.77 21.049 211.77 20.7696L211.776 20.6194C211.787 20.4484 211.793 20.0188 211.793 19.3306L211.782 19.1491L211.793 18.6236L211.787 18.0792V17.8102C211.787 17.5683 211.77 17.2847 211.734 16.9593C211.73 16.9301 211.715 16.8801 211.687 16.8092C211.655 16.7967 211.62 16.7883 211.581 16.7842C211.545 16.78 211.508 16.7737 211.468 16.7654C211.315 16.7362 211.151 16.7153 210.978 16.7028L210.889 16.6778C210.782 16.6653 210.702 16.6486 210.646 16.6277C210.635 16.5068 210.629 16.4296 210.629 16.3962C210.629 16.3462 210.641 16.2774 210.664 16.1898C210.743 16.1731 210.853 16.1648 210.995 16.1648C211.137 16.1648 211.236 16.1627 211.291 16.1585C211.772 16.2127 212.128 16.2419 212.361 16.2461C212.467 16.2461 212.574 16.2503 212.68 16.2586C212.79 16.2628 212.887 16.2649 212.97 16.2649C213.1 16.2649 213.417 16.244 213.922 16.2023C214.004 16.1814 214.095 16.171 214.193 16.171C214.339 16.171 214.461 16.1794 214.56 16.196C214.564 16.2836 214.566 16.3462 214.566 16.3837C214.566 16.4505 214.558 16.5318 214.542 16.6277L213.502 16.8029C213.415 16.8446 213.372 16.9051 213.372 16.9844L213.39 17.2158L213.395 17.316L213.39 17.5912L213.378 17.804V17.854C213.382 17.8999 213.384 17.9395 213.384 17.9729L213.378 18.7675C213.382 18.8425 213.384 18.8989 213.384 18.9364C213.384 18.9572 213.38 19.024 213.372 19.1366C213.368 19.2033 213.366 19.2722 213.366 19.3431C213.366 19.4056 213.372 19.5537 213.384 19.7873C213.494 19.8081 213.587 19.8206 213.661 19.8248L214.536 19.8436H214.962L216.026 19.8498L217.061 19.8186C217.195 19.8186 217.337 19.804 217.486 19.7748C217.494 19.633 217.5 19.2847 217.504 18.7299L217.516 18.4484L217.48 17.3848L217.439 16.9468C217.427 16.9176 217.4 16.8905 217.356 16.8655C217.218 16.7821 216.942 16.6882 216.529 16.5839C216.454 16.5673 216.383 16.5464 216.316 16.5214C216.324 16.3754 216.339 16.2565 216.363 16.1648C216.45 16.1606 216.503 16.1585 216.523 16.1585L217.096 16.1648C217.463 16.2148 217.835 16.2398 218.213 16.2398C218.3 16.2398 218.369 16.2377 218.42 16.2336L219.189 16.2086C219.26 16.2044 219.329 16.2002 219.396 16.196C219.538 16.1627 219.683 16.146 219.833 16.146C219.948 16.146 220.085 16.1522 220.247 16.1648C220.243 16.3274 220.233 16.4755 220.217 16.609C219.855 16.6882 219.616 16.7466 219.502 16.7842C219.392 16.8175 219.28 16.8655 219.165 16.9281L219.13 17.0532V17.1595L219.136 17.3222L219.13 17.4035C219.122 17.4911 219.118 17.5579 219.118 17.6038V17.7602C219.122 17.9479 219.124 18.0521 219.124 18.073V18.8676L219.13 19.4682L219.118 20.2628C219.114 20.4463 219.12 20.8217 219.136 21.3889V22.2774L219.147 23.0156C219.147 23.1533 219.144 23.3201 219.136 23.5162C219.218 23.5412 219.295 23.562 219.366 23.5787C219.737 23.6621 220.016 23.7477 220.206 23.8352L220.223 24.2732C220.066 24.2774 219.973 24.2795 219.946 24.2795C219.756 24.2795 219.54 24.2669 219.295 24.2419C218.972 24.2044 218.452 24.1856 217.735 24.1856C217.411 24.1856 216.994 24.2127 216.481 24.2669C216.426 24.2669 216.359 24.2544 216.28 24.2294C216.284 24.0375 216.294 23.902 216.31 23.8227L216.765 23.7101L217.244 23.6288C217.291 23.6163 217.352 23.5975 217.427 23.5725C217.471 23.2346 217.494 22.6736 217.498 21.8895L217.504 21.3577C217.48 21.1366 217.469 20.8717 217.469 20.5631C217.323 20.5506 217.165 20.5422 216.996 20.5381L214.253 20.5068L214.199 20.5005L214.158 20.4943C214.13 20.4943 214.099 20.4964 214.063 20.5005C213.961 20.5047 213.874 20.5068 213.803 20.5068H213.638C213.563 20.5068 213.478 20.5214 213.384 20.5506L213.36 21.0198V21.1011C213.368 21.2138 213.372 21.2868 213.372 21.3201V23.2596C213.372 23.3681 213.378 23.4786 213.39 23.5912L213.449 23.6288L214.318 23.7727C214.361 23.7894 214.395 23.7998 214.418 23.804C214.469 23.8165 214.513 23.8352 214.548 23.8603C214.56 23.9562 214.566 24.0209 214.566 24.0542C214.566 24.1084 214.558 24.1835 214.542 24.2795C214.4 24.2836 214.28 24.2857 214.182 24.2857C214.095 24.2857 214.014 24.2836 213.939 24.2795C213.904 24.2795 213.87 24.2774 213.839 24.2732L213.005 24.2357C212.808 24.2148 212.532 24.2044 212.178 24.2044L212.053 24.2106C211.888 24.219 211.791 24.2252 211.764 24.2294C211.519 24.2628 211.137 24.2795 210.617 24.2795Z" fill="white"/>
<path d="M221.092 24.2795C221.092 24.1543 221.104 24.0063 221.128 23.8352L221.867 23.6976C221.957 23.6767 222.066 23.6434 222.192 23.5975L222.269 22.0334C222.253 21.4703 222.245 21.049 222.245 20.7696L222.251 20.6194C222.263 20.4484 222.269 20.0188 222.269 19.3306L222.257 19.1491L222.269 18.6236L222.263 18.0792V17.8102C222.263 17.5683 222.245 17.2847 222.21 16.9593C222.206 16.9301 222.19 16.8801 222.162 16.8092C222.131 16.7967 222.095 16.7883 222.056 16.7842C222.021 16.78 221.983 16.7737 221.944 16.7654C221.79 16.7362 221.626 16.7153 221.453 16.7028L221.364 16.6778C221.258 16.6653 221.177 16.6486 221.122 16.6277C221.11 16.5068 221.104 16.4296 221.104 16.3962C221.104 16.3462 221.116 16.2774 221.14 16.1898C221.219 16.1731 221.329 16.1648 221.471 16.1648C221.613 16.1648 221.711 16.1627 221.766 16.1585C222.247 16.2127 222.604 16.2419 222.836 16.2461C222.943 16.2461 223.049 16.2503 223.156 16.2586C223.266 16.2628 223.363 16.2649 223.445 16.2649C223.575 16.2649 223.893 16.244 224.397 16.2023C224.48 16.1814 224.57 16.171 224.669 16.171C224.815 16.171 224.937 16.1794 225.036 16.196C225.039 16.2836 225.041 16.3462 225.041 16.3837C225.041 16.4505 225.034 16.5318 225.018 16.6277L223.977 16.8029C223.891 16.8446 223.847 16.9051 223.847 16.9844L223.865 17.2158L223.871 17.316L223.865 17.5912L223.853 17.804V17.854C223.857 17.8999 223.859 17.9395 223.859 17.9729L223.853 18.7675C223.857 18.8425 223.859 18.8989 223.859 18.9364C223.859 18.9572 223.855 19.024 223.847 19.1366C223.843 19.2033 223.841 19.2722 223.841 19.3431C223.841 19.4056 223.847 19.5537 223.859 19.7873C223.969 19.8081 224.062 19.8206 224.137 19.8248L225.012 19.8436H225.438L226.502 19.8498L227.536 19.8186C227.67 19.8186 227.812 19.804 227.962 19.7748C227.97 19.633 227.976 19.2847 227.98 18.7299L227.991 18.4484L227.956 17.3848L227.914 16.9468C227.903 16.9176 227.875 16.8905 227.832 16.8655C227.694 16.7821 227.418 16.6882 227.004 16.5839C226.929 16.5673 226.858 16.5464 226.791 16.5214C226.799 16.3754 226.815 16.2565 226.839 16.1648C226.925 16.1606 226.978 16.1585 226.998 16.1585L227.572 16.1648C227.938 16.2148 228.311 16.2398 228.689 16.2398C228.776 16.2398 228.845 16.2377 228.896 16.2336L229.664 16.2086C229.735 16.2044 229.804 16.2002 229.871 16.196C230.013 16.1627 230.159 16.146 230.309 16.146C230.423 16.146 230.561 16.1522 230.723 16.1648C230.719 16.3274 230.709 16.4755 230.693 16.609C230.33 16.6882 230.092 16.7466 229.978 16.7842C229.867 16.8175 229.755 16.8655 229.641 16.9281L229.605 17.0532V17.1595L229.611 17.3222L229.605 17.4035C229.597 17.4911 229.593 17.5579 229.593 17.6038V17.7602C229.597 17.9479 229.599 18.0521 229.599 18.073V18.8676L229.605 19.4682L229.593 20.2628C229.589 20.4463 229.595 20.8217 229.611 21.3889V22.2774L229.623 23.0156C229.623 23.1533 229.619 23.3201 229.611 23.5162C229.694 23.5412 229.771 23.562 229.842 23.5787C230.212 23.6621 230.492 23.7477 230.681 23.8352L230.699 24.2732C230.541 24.2774 230.449 24.2795 230.421 24.2795C230.232 24.2795 230.015 24.2669 229.771 24.2419C229.448 24.2044 228.927 24.1856 228.21 24.1856C227.887 24.1856 227.469 24.2127 226.957 24.2669C226.902 24.2669 226.835 24.2544 226.756 24.2294C226.76 24.0375 226.77 23.902 226.785 23.8227L227.241 23.7101L227.719 23.6288C227.767 23.6163 227.828 23.5975 227.903 23.5725C227.946 23.2346 227.97 22.6736 227.974 21.8895L227.98 21.3577C227.956 21.1366 227.944 20.8717 227.944 20.5631C227.798 20.5506 227.641 20.5422 227.471 20.5381L224.728 20.5068L224.675 20.5005L224.634 20.4943C224.606 20.4943 224.574 20.4964 224.539 20.5005C224.436 20.5047 224.35 20.5068 224.279 20.5068H224.113C224.038 20.5068 223.954 20.5214 223.859 20.5506L223.835 21.0198V21.1011C223.843 21.2138 223.847 21.2868 223.847 21.3201V23.2596C223.847 23.3681 223.853 23.4786 223.865 23.5912L223.924 23.6288L224.793 23.7727C224.836 23.7894 224.87 23.7998 224.894 23.804C224.945 23.8165 224.988 23.8352 225.024 23.8603C225.036 23.9562 225.041 24.0209 225.041 24.0542C225.041 24.1084 225.034 24.1835 225.018 24.2795C224.876 24.2836 224.756 24.2857 224.657 24.2857C224.57 24.2857 224.49 24.2836 224.415 24.2795C224.379 24.2795 224.346 24.2774 224.314 24.2732L223.481 24.2357C223.284 24.2148 223.008 24.2044 222.653 24.2044L222.529 24.2106C222.363 24.219 222.267 24.2252 222.239 24.2294C221.995 24.2628 221.613 24.2795 221.092 24.2795Z" fill="white"/>
<path d="M234.364 19.6496C234.794 19.6121 235.184 19.5933 235.535 19.5933C236.65 19.5933 237.472 19.8102 238 20.244C238.528 20.6778 238.792 21.2138 238.792 21.8519C238.792 22.6069 238.498 23.2096 237.911 23.6601C237.324 24.1064 236.591 24.3295 235.712 24.3295C235.55 24.3295 235.278 24.3149 234.896 24.2857C234.636 24.2649 234.317 24.2544 233.938 24.2544C233.773 24.2544 233.462 24.269 233.004 24.2982L231.621 24.3545L231.633 23.854C231.712 23.829 231.826 23.806 231.976 23.7852C232.26 23.7435 232.468 23.6893 232.602 23.6225C232.705 23.5266 232.756 23.0907 232.756 22.3149C232.756 20.8425 232.746 19.5704 232.727 18.4984C232.711 17.4223 232.679 16.8571 232.632 16.8029C232.589 16.7445 232.455 16.7091 232.23 16.6966C232.143 16.6924 231.95 16.6694 231.651 16.6277L231.633 16.1835L231.899 16.1773C232.214 16.1773 232.642 16.2002 233.182 16.2461L233.678 16.2836C233.793 16.2836 233.97 16.2732 234.21 16.2523L234.559 16.2211C234.788 16.2086 234.947 16.196 235.038 16.1835C235.176 16.1627 235.328 16.1522 235.493 16.1522L235.499 16.2836L235.487 16.4964C235.483 16.5214 235.481 16.5589 235.481 16.609C234.878 16.7299 234.539 16.8238 234.465 16.8905C234.394 16.9572 234.358 17.1449 234.358 17.4536L234.364 17.7664C234.372 17.9208 234.376 18.1293 234.376 18.3921L234.364 19.6496ZM234.447 23.5912C234.699 23.7039 234.938 23.7602 235.162 23.7602C236.439 23.7602 237.078 23.1762 237.078 22.0083C237.078 20.7737 236.433 20.1564 235.144 20.1564C234.798 20.1564 234.541 20.1773 234.376 20.219C234.368 20.3775 234.364 20.5026 234.364 20.5944L234.376 20.9885L234.37 21.9145L234.388 23.2033V23.3034C234.388 23.391 234.407 23.487 234.447 23.5912ZM239.289 24.3045V23.854C239.367 23.829 239.497 23.7935 239.679 23.7477C239.935 23.6809 240.126 23.6121 240.252 23.5412C240.323 23.4119 240.359 23.2325 240.359 23.0031L240.353 22.2649L240.364 20.8384L240.359 20.5005C240.386 19.6747 240.4 19.2492 240.4 19.2242L240.388 18.3921L240.406 18.0542L240.376 17.341L240.37 17.0719C240.366 17.0302 240.353 16.9635 240.329 16.8717C240.167 16.7925 239.905 16.7424 239.543 16.7216C239.456 16.7174 239.387 16.7112 239.336 16.7028L239.318 16.1522L241.009 16.2273C241.218 16.2357 241.348 16.2398 241.399 16.2398C241.632 16.2398 242.004 16.2231 242.516 16.1898C242.804 16.1689 242.985 16.1564 243.06 16.1522C243.064 16.2315 243.066 16.2982 243.066 16.3525C243.066 16.4234 243.062 16.5151 243.054 16.6277C242.897 16.6861 242.715 16.7424 242.51 16.7967C242.309 16.8467 242.144 16.8989 242.014 16.9531C241.99 17.0615 241.978 17.2179 241.978 17.4223C241.978 17.6017 241.984 17.7477 241.996 17.8603C241.984 18.5652 241.978 19.1074 241.978 19.487L241.984 21.1387L241.967 21.9771L241.978 23.2284L241.972 23.4661C241.972 23.4995 241.98 23.5474 241.996 23.61C242.236 23.6642 242.455 23.7018 242.652 23.7226C242.688 23.7268 242.808 23.7435 243.013 23.7727C243.029 23.8978 243.037 24.0021 243.037 24.0855C243.037 24.1314 243.035 24.2023 243.031 24.2982C242.979 24.2982 242.94 24.3003 242.912 24.3045C242.786 24.3128 242.713 24.317 242.694 24.317C242.666 24.317 242.615 24.3107 242.54 24.2982C242.485 24.2899 242.223 24.2607 241.754 24.2106L240.707 24.1981C240.498 24.1981 240.195 24.219 239.797 24.2607C239.537 24.2857 239.367 24.3003 239.289 24.3045Z" fill="white"/>
<path d="M243.569 16.2023C243.71 16.1981 243.825 16.196 243.911 16.196C244.006 16.196 244.083 16.1981 244.142 16.2023L244.461 16.2273L244.609 16.2211C244.629 16.2211 244.7 16.2315 244.822 16.2523C245.043 16.2899 245.36 16.3087 245.774 16.3087C246.286 16.3087 246.771 16.2753 247.228 16.2086C247.291 16.2127 247.36 16.219 247.435 16.2273C247.427 16.365 247.423 16.5026 247.423 16.6403C247.364 16.6694 247.322 16.6882 247.299 16.6966L246.714 16.8029C246.666 16.8154 246.601 16.8384 246.519 16.8717C246.522 16.9468 246.53 17.001 246.542 17.0344C246.83 17.5558 247.1 17.9896 247.352 18.3358L247.925 19.2054L247.991 19.3055L248.327 18.8676L249.061 17.7351C249.238 17.4557 249.35 17.2471 249.397 17.1095C249.413 17.0678 249.421 17.0282 249.421 16.9906L249.403 16.8905C249.325 16.8446 249.262 16.8154 249.214 16.8029C249.187 16.7987 249.112 16.7946 248.99 16.7904C248.785 16.7862 248.601 16.7696 248.44 16.7404C248.428 16.6569 248.422 16.5944 248.422 16.5527C248.422 16.5318 248.426 16.4818 248.434 16.4025C248.434 16.3733 248.436 16.3253 248.44 16.2586C248.483 16.2544 248.523 16.244 248.558 16.2273C248.913 16.2523 249.646 16.2649 250.757 16.2649C250.899 16.2649 251.025 16.2586 251.136 16.2461C251.246 16.2336 251.313 16.2273 251.337 16.2273C251.376 16.2273 251.435 16.2336 251.514 16.2461C251.534 16.3295 251.543 16.4046 251.543 16.4713C251.543 16.513 251.541 16.5798 251.538 16.6715L250.627 16.878C250.552 16.9072 250.469 16.9656 250.379 17.0532C250.288 17.1366 250.044 17.4494 249.646 17.9917L248.789 19.1679C248.69 19.3097 248.607 19.4244 248.54 19.512C248.477 19.5954 248.42 19.6705 248.369 19.7372L248.458 19.8686C248.674 20.1981 248.895 20.5297 249.12 20.8634L250.296 22.7028C250.607 23.1908 250.838 23.4911 250.988 23.6038C251.094 23.683 251.364 23.7664 251.798 23.854C251.809 23.9374 251.815 23.9917 251.815 24.0167C251.815 24.0375 251.806 24.1147 251.786 24.2482L251.804 24.3045L251.384 24.317C251.293 24.317 251.116 24.3066 250.852 24.2857L250.125 24.2357L250.048 24.2231C249.965 24.219 249.908 24.2169 249.876 24.2169C249.628 24.2169 249.334 24.2315 248.995 24.2607C248.657 24.2899 248.408 24.3045 248.251 24.3045C248.148 24.3045 247.981 24.3003 247.748 24.292V24.1293C247.748 24.0542 247.752 23.9771 247.76 23.8978C248.063 23.8144 248.381 23.7456 248.712 23.6913C248.755 23.6621 248.804 23.633 248.86 23.6038L248.865 23.5349C248.865 23.4974 248.86 23.4599 248.848 23.4223C248.824 23.3431 248.769 23.2284 248.682 23.0782C248.509 22.7862 248.274 22.4338 247.979 22.0209L247.275 21.0261C247.185 21.1387 246.867 21.6017 246.323 22.415C246.15 22.6236 246.004 22.8488 245.886 23.0907C245.807 23.245 245.768 23.3431 245.768 23.3848L245.774 23.4348L245.85 23.5474C245.996 23.6184 246.178 23.6913 246.394 23.7664C246.611 23.8373 246.751 23.8853 246.814 23.9103L246.85 24.1981V24.2294L246.838 24.2982C246.723 24.3149 246.647 24.3233 246.607 24.3233C246.544 24.3233 246.355 24.3066 246.04 24.2732C245.933 24.2607 245.742 24.2523 245.466 24.2482L245.188 24.2419L243.882 24.3045C243.854 24.3045 243.762 24.3024 243.604 24.2982L243.58 24.0167C243.58 23.9791 243.586 23.9249 243.598 23.854C243.665 23.8457 243.75 23.8352 243.852 23.8227C244.16 23.7935 244.396 23.7351 244.562 23.6475C244.629 23.61 244.753 23.4828 244.934 23.2659C245.214 22.9406 245.466 22.6215 245.691 22.3087C245.821 22.1251 245.923 21.9875 245.998 21.8957C246.207 21.5912 246.52 21.1554 246.938 20.5881L246.589 20.0313C246.337 19.7018 246.142 19.4286 246.004 19.2117L245.655 18.6736C245.521 18.44 245.433 18.2941 245.389 18.2357C245.2 17.9771 244.976 17.6309 244.715 17.1971C244.617 17.0386 244.491 16.9218 244.337 16.8467C244.183 16.7716 243.933 16.7237 243.586 16.7028V16.609C243.586 16.5631 243.584 16.5297 243.58 16.5089C243.565 16.4296 243.557 16.3775 243.557 16.3525L243.569 16.2023Z" fill="white"/>
<path d="M255.226 24.2795C255.226 24.1502 255.238 24.0021 255.262 23.8352C255.297 23.8269 255.38 23.8144 255.51 23.7977L255.764 23.7477C256.013 23.7018 256.2 23.6517 256.326 23.5975L256.403 22.0334L256.379 20.7696L256.385 20.3754L256.403 18.6236L256.397 18.0792V17.8102C256.397 17.3139 256.363 16.9802 256.296 16.8092C256.273 16.7967 256.237 16.7883 256.19 16.7842C256.155 16.78 256.117 16.7737 256.078 16.7654C255.896 16.732 255.733 16.7112 255.587 16.7028L255.498 16.6778C255.388 16.6653 255.307 16.6486 255.256 16.6277C255.244 16.5068 255.238 16.4296 255.238 16.3962C255.238 16.3462 255.25 16.2774 255.274 16.1898C255.36 16.1689 255.453 16.1585 255.552 16.1585C255.788 16.1585 256.032 16.1689 256.285 16.1898C256.998 16.244 257.774 16.2711 258.614 16.2711L260.517 16.2398L261.918 16.2523C262.967 16.2523 263.708 16.2252 264.141 16.171C264.311 16.1502 264.427 16.1397 264.49 16.1397C264.565 16.1397 264.687 16.1481 264.857 16.1648C264.853 16.3316 264.843 16.4797 264.827 16.609C264.295 16.7174 263.944 16.8238 263.775 16.9281C263.743 17.0115 263.727 17.2471 263.727 17.635V17.7602L263.733 18.073L263.739 19.4682L263.733 20.5693L263.745 21.3889V22.2774L263.757 23.0156C263.757 23.1616 263.753 23.3285 263.745 23.5162C263.828 23.5412 263.905 23.562 263.976 23.5787C264.346 23.6621 264.626 23.7477 264.815 23.8352L264.833 24.2732L264.555 24.2795C264.504 24.2795 264.435 24.2753 264.348 24.2669L263.905 24.2419C263.582 24.2044 263.065 24.1856 262.356 24.1856C262.123 24.1856 261.909 24.194 261.712 24.2106L261.091 24.2669C261.032 24.2669 260.965 24.2544 260.89 24.2294C260.894 24.0292 260.904 23.8936 260.919 23.8227L261.321 23.7226L261.552 23.6788C261.8 23.6371 261.962 23.6017 262.037 23.5725C262.088 23.3681 262.113 22.0709 262.113 19.6809L262.078 16.9718C261.952 16.9593 261.794 16.951 261.605 16.9468L258.862 16.9155L258.809 16.9093C258.797 16.9051 258.783 16.903 258.767 16.903C258.74 16.903 258.708 16.9051 258.673 16.9093L258.413 16.9155C258.196 16.9155 258.056 16.9301 257.993 16.9593C257.973 17.3931 257.964 17.7727 257.964 18.098L257.981 21.3201V23.1283C257.981 23.3577 257.987 23.512 257.999 23.5912C258.023 23.6204 258.092 23.6413 258.206 23.6538L258.478 23.6976C258.592 23.7143 258.702 23.7331 258.809 23.7539L259.028 23.804C259.079 23.8123 259.122 23.8311 259.158 23.8603C259.169 23.9562 259.175 24.0209 259.175 24.0542C259.175 24.1084 259.168 24.1835 259.152 24.2795L258.785 24.2857C258.635 24.2857 258.425 24.2732 258.153 24.2482L257.709 24.2419L257.408 24.2106L256.787 24.2044C256.629 24.2044 256.448 24.219 256.243 24.2482L255.859 24.2795H255.226Z" fill="white"/>
<path d="M265.613 16.6215L265.607 16.146L267.02 16.2398L267.653 16.2336H267.883C268.124 16.2336 268.5 16.219 269.012 16.1898C269.304 16.1689 269.487 16.1585 269.562 16.1585C270.059 16.1585 270.433 16.1877 270.685 16.2461C271.072 16.3295 271.377 16.463 271.602 16.6465C271.83 16.83 272.025 17.0928 272.187 17.4348C272.353 17.7727 272.435 18.0876 272.435 18.3796C272.435 19.1053 272.219 19.6955 271.785 20.1502C271.355 20.6006 270.812 20.8259 270.153 20.8259C269.925 20.8259 269.706 20.7967 269.497 20.7383C269.292 20.6799 269.099 20.5923 268.918 20.4755C268.898 20.3545 268.888 20.1877 268.888 19.975C268.983 19.9833 269.068 19.9896 269.142 19.9937C269.221 19.9979 269.29 20 269.349 20C269.684 20 269.966 19.902 270.195 19.7059C270.498 19.4515 270.65 19.0386 270.65 18.4672C270.65 18.0584 270.583 17.7247 270.449 17.4661C270.319 17.2033 270.163 17.0261 269.982 16.9343C269.73 16.8092 269.446 16.7466 269.131 16.7466C268.835 16.7466 268.624 16.7925 268.498 16.8843C268.467 16.9385 268.443 16.9906 268.427 17.0407L268.469 19.9875L268.457 20.2377L268.474 20.5005C268.478 20.5589 268.48 20.6444 268.48 20.757V21.2701L268.486 22.0897L268.474 23.0657C268.474 23.2033 268.486 23.3889 268.51 23.6225L269.686 23.7789C269.702 23.879 269.71 23.9583 269.71 24.0167C269.71 24.0792 269.7 24.1668 269.68 24.2795C269.582 24.2961 269.507 24.3045 269.456 24.3045C269.334 24.3045 269.103 24.2899 268.764 24.2607C268.425 24.2273 268.039 24.2106 267.605 24.2106C267.117 24.2106 266.652 24.244 266.21 24.3107C266.135 24.3233 266.017 24.3337 265.856 24.342C265.84 24.2211 265.832 24.1314 265.832 24.073C265.832 24.0355 265.836 23.9771 265.844 23.8978L266.204 23.7727C266.453 23.6934 266.667 23.5975 266.849 23.4849C266.884 23.3639 266.902 23.2534 266.902 23.1533C266.902 23.1116 266.9 23.0636 266.896 23.0094C266.892 22.8801 266.89 22.6986 266.89 22.4651L266.872 20.707L266.807 18.7237C266.78 17.781 266.758 17.2722 266.742 17.1971C266.715 17.0761 266.667 16.9823 266.6 16.9155C266.533 16.8446 266.421 16.7946 266.263 16.7654C265.936 16.707 265.72 16.659 265.613 16.6215Z" fill="white"/>
<path d="M273.304 20.1502C273.304 19.633 273.399 19.1137 273.588 18.5923C273.726 18.2169 273.919 17.8728 274.167 17.56C274.416 17.2471 274.727 16.9698 275.101 16.7278C275.476 16.4818 275.858 16.3066 276.248 16.2023C276.638 16.0938 277.074 16.0396 277.555 16.0396C278.375 16.0396 279.086 16.2023 279.689 16.5276C280.292 16.853 280.767 17.293 281.114 17.8478C281.563 18.5693 281.788 19.3264 281.788 20.1189C281.788 21.2993 281.407 22.3107 280.647 23.1533C279.89 23.9958 278.836 24.4171 277.484 24.4171C277.149 24.4171 276.836 24.3942 276.544 24.3483C276.323 24.3149 276.13 24.269 275.965 24.2106C275.665 24.1064 275.498 24.0459 275.462 24.0292C275.032 23.7706 274.688 23.5057 274.428 23.2346C274.167 22.9635 273.947 22.6569 273.765 22.3149C273.667 22.123 273.555 21.7769 273.428 21.2763C273.346 20.9552 273.304 20.5798 273.304 20.1502ZM277.33 16.659C276.987 16.659 276.684 16.7445 276.42 16.9155C276.156 17.0824 275.957 17.268 275.823 17.4724C275.598 17.8186 275.438 18.1981 275.344 18.6111C275.249 19.0198 275.202 19.5182 275.202 20.1064C275.202 20.4651 275.216 20.7216 275.243 20.8759C275.251 20.926 275.263 21.0115 275.279 21.1324C275.314 21.4411 275.356 21.6663 275.403 21.8081C275.572 22.3379 275.693 22.6653 275.764 22.7904C275.882 23.0031 276.057 23.2138 276.29 23.4223C276.408 23.5308 276.579 23.6309 276.804 23.7226C277.029 23.8102 277.253 23.854 277.478 23.854C277.904 23.854 278.298 23.7497 278.66 23.5412C279.027 23.3285 279.32 22.9698 279.541 22.4651C279.762 21.9604 279.872 21.3034 279.872 20.4943C279.872 20.1606 279.85 19.708 279.807 19.1366L279.778 19.0177C279.766 18.9844 279.746 18.8989 279.718 18.7612C279.573 18.0772 279.293 17.5558 278.879 17.1971C278.469 16.8384 277.953 16.659 277.33 16.659Z" fill="white"/>
<path d="M289.674 18.3107L289.425 18.3233C289.374 18.3233 289.307 18.3191 289.224 18.3107C289.189 18.2315 289.142 18.1084 289.083 17.9416L288.852 17.4974C288.753 17.3014 288.625 17.1095 288.468 16.9218C288.409 16.8968 288.283 16.8801 288.089 16.8717L286.736 16.7904L285.932 16.8029L285.583 16.8092C285.555 16.8717 285.541 16.9572 285.541 17.0657L285.547 20.0125L285.536 20.4192L285.553 20.7883L285.577 21.245C285.577 21.3618 285.569 21.5558 285.553 21.8269C285.545 21.9562 285.541 22.0647 285.541 22.1522L285.565 22.6653L285.559 22.8655C285.571 23.0532 285.577 23.1887 285.577 23.2722C285.577 23.3514 285.591 23.4265 285.618 23.4974C285.65 23.5182 285.77 23.5558 285.979 23.61L286.168 23.6663C286.282 23.6997 286.377 23.7205 286.452 23.7289C286.59 23.7414 286.678 23.7685 286.718 23.8102C286.757 23.8478 286.777 23.927 286.777 24.048C286.777 24.2273 286.72 24.317 286.606 24.317C286.562 24.317 286.391 24.3024 286.091 24.2732L285.778 24.2607L285.701 24.2544C285.559 24.2461 285.439 24.2419 285.34 24.2419L284.714 24.2544H283.868L283.064 24.292L282.84 24.2982C282.8 24.2982 282.763 24.2878 282.727 24.2669C282.724 24.2002 282.722 24.1502 282.722 24.1168C282.722 24.0542 282.726 23.9708 282.733 23.8665C282.773 23.8206 282.869 23.7789 283.023 23.7414C283.106 23.7205 283.195 23.6893 283.289 23.6475L283.514 23.56C283.691 23.4974 283.794 23.4515 283.821 23.4223C283.849 23.3931 283.874 23.2826 283.898 23.0907C283.922 22.8947 283.933 22.755 283.933 22.6715L283.916 21.3514L283.904 20.5506L283.916 19.9062L283.91 19.2868C283.91 18.9614 283.898 18.5172 283.874 17.9541L283.886 17.1658C283.886 17.0156 283.866 16.9218 283.827 16.8843C283.792 16.8467 283.697 16.8279 283.543 16.8279C283.488 16.8279 283.329 16.805 283.064 16.7591C282.804 16.7091 282.66 16.6757 282.633 16.659C282.605 16.6048 282.592 16.4818 282.592 16.2899C282.592 16.2482 282.595 16.2044 282.603 16.1585L282.769 16.1522C282.844 16.1522 283.017 16.1627 283.289 16.1835L284.998 16.2523L287.327 16.2398L288.113 16.2211C288.641 16.2211 289.124 16.2523 289.561 16.3149C289.632 16.3858 289.668 16.4984 289.668 16.6528L289.674 18.3107Z" fill="white"/>
<path d="M289.969 16.6215L289.963 16.146L291.376 16.2398L292.009 16.2336H292.239C292.48 16.2336 292.856 16.219 293.368 16.1898C293.66 16.1689 293.843 16.1585 293.918 16.1585C294.415 16.1585 294.789 16.1877 295.042 16.2461C295.428 16.3295 295.733 16.463 295.958 16.6465C296.186 16.83 296.381 17.0928 296.543 17.4348C296.709 17.7727 296.791 18.0876 296.791 18.3796C296.791 19.1053 296.575 19.6955 296.141 20.1502C295.711 20.6006 295.168 20.8259 294.509 20.8259C294.281 20.8259 294.062 20.7967 293.853 20.7383C293.648 20.6799 293.455 20.5923 293.274 20.4755C293.254 20.3545 293.244 20.1877 293.244 19.975C293.339 19.9833 293.424 19.9896 293.499 19.9937C293.577 19.9979 293.646 20 293.705 20C294.04 20 294.322 19.902 294.551 19.7059C294.854 19.4515 295.006 19.0386 295.006 18.4672C295.006 18.0584 294.939 17.7247 294.805 17.4661C294.675 17.2033 294.519 17.0261 294.338 16.9343C294.086 16.8092 293.802 16.7466 293.487 16.7466C293.191 16.7466 292.98 16.7925 292.854 16.8843C292.823 16.9385 292.799 16.9906 292.783 17.0407L292.825 19.9875L292.813 20.2377L292.831 20.5005C292.834 20.5589 292.836 20.6444 292.836 20.757V21.2701L292.842 22.0897L292.831 23.0657C292.831 23.2033 292.842 23.3889 292.866 23.6225L294.042 23.7789C294.058 23.879 294.066 23.9583 294.066 24.0167C294.066 24.0792 294.056 24.1668 294.037 24.2795C293.938 24.2961 293.863 24.3045 293.812 24.3045C293.69 24.3045 293.459 24.2899 293.12 24.2607C292.781 24.2273 292.395 24.2106 291.962 24.2106C291.473 24.2106 291.008 24.244 290.566 24.3107C290.491 24.3233 290.373 24.3337 290.212 24.342C290.196 24.2211 290.188 24.1314 290.188 24.073C290.188 24.0355 290.192 23.9771 290.2 23.8978L290.56 23.7727C290.809 23.6934 291.024 23.5975 291.205 23.4849C291.24 23.3639 291.258 23.2534 291.258 23.1533C291.258 23.1116 291.256 23.0636 291.252 23.0094C291.248 22.8801 291.246 22.6986 291.246 22.4651L291.228 20.707L291.163 18.7237C291.136 17.781 291.114 17.2722 291.098 17.1971C291.071 17.0761 291.024 16.9823 290.957 16.9155C290.89 16.8446 290.777 16.7946 290.62 16.7654C290.292 16.707 290.076 16.659 289.969 16.6215Z" fill="white"/>
<path d="M296.975 24.3045L296.986 23.879C297.061 23.854 297.193 23.8227 297.383 23.7852C297.686 23.7226 297.869 23.6663 297.932 23.6163C297.999 23.5662 298.08 23.4453 298.175 23.2534L299.369 19.9437L300.77 16.0521C300.9 16.0563 301.024 16.0584 301.142 16.0584H301.408L301.462 16.171L302.49 18.7487C302.723 19.2951 302.932 19.8269 303.117 20.3441C303.302 20.8571 303.462 21.2763 303.596 21.6017C303.674 21.7977 303.783 22.0918 303.921 22.4838C303.992 22.6966 304.1 22.9635 304.246 23.2847C304.325 23.4599 304.384 23.562 304.423 23.5912C304.494 23.6538 304.609 23.6955 304.766 23.7164C304.928 23.7372 305.101 23.7852 305.286 23.8603C305.306 23.9979 305.316 24.1001 305.316 24.1668C305.316 24.196 305.314 24.2419 305.31 24.3045C305.018 24.3045 304.697 24.2899 304.346 24.2607C303.996 24.2315 303.68 24.2169 303.401 24.2169C303.089 24.2169 302.865 24.2211 302.727 24.2294L301.722 24.2857L301.432 24.2982C301.432 24.1522 301.438 24.0125 301.45 23.879L302.106 23.7289C302.303 23.6747 302.417 23.633 302.449 23.6038C302.488 23.562 302.508 23.5141 302.508 23.4599C302.508 23.4056 302.498 23.3493 302.478 23.2909L302.242 22.6778L301.775 21.4515L299.517 21.4453C299.434 21.6455 299.262 22.1356 299.002 22.9155C298.927 23.1366 298.89 23.2868 298.89 23.366C298.89 23.4745 298.918 23.5516 298.973 23.5975C299.063 23.6767 299.237 23.7331 299.493 23.7664C299.528 23.7748 299.668 23.7977 299.913 23.8352C299.917 23.9854 299.919 24.0897 299.919 24.1481C299.919 24.194 299.915 24.2419 299.907 24.292C299.662 24.292 299.079 24.2565 298.157 24.1856L297.915 24.2294C297.623 24.2795 297.345 24.3045 297.081 24.3045H296.975ZM299.753 20.7883C300.675 20.8008 301.219 20.8071 301.385 20.8071L301.533 20.8008C301.414 20.4296 301.261 19.9979 301.071 19.5057C300.882 19.0094 300.729 18.6319 300.61 18.3733L299.753 20.7883Z" fill="white"/>
<path d="M305.316 24.2982L305.334 23.8728C305.826 23.806 306.14 23.6997 306.274 23.5537C306.36 23.4536 306.427 23.1929 306.475 22.7716L306.552 20.5443L306.64 18.2795C306.648 18.1418 306.652 18.0584 306.652 18.0292C306.652 17.4411 306.619 17.1011 306.552 17.0094C306.488 16.9176 306.236 16.8279 305.795 16.7404C305.684 16.7153 305.598 16.6945 305.535 16.6778C305.527 16.5735 305.523 16.4859 305.523 16.415V16.2211C305.669 16.2086 305.84 16.2023 306.037 16.2023L307.769 16.2649C307.809 16.269 307.864 16.2732 307.935 16.2774L308.207 16.2899C308.274 16.3733 308.341 16.4838 308.408 16.6215C308.554 16.926 308.747 17.3723 308.987 17.9604L309.052 18.1293L309.974 20.2503C309.994 20.3003 310.026 20.3733 310.069 20.4692C310.128 20.6194 310.189 20.7633 310.252 20.9009C310.315 21.0344 310.38 21.1825 310.447 21.3452C310.518 21.5078 310.585 21.6517 310.648 21.7769C310.703 21.6767 310.757 21.5662 310.808 21.4453C310.966 21.0615 311.119 20.7091 311.269 20.3879C311.529 19.8206 311.882 18.9531 312.327 17.7852C312.398 17.5975 312.514 17.316 312.676 16.9406C312.842 16.561 312.932 16.3608 312.948 16.3399C312.983 16.3066 313.054 16.2899 313.161 16.2899C313.2 16.2899 313.261 16.2878 313.344 16.2836C313.549 16.2711 313.795 16.2607 314.083 16.2523C314.497 16.2482 314.828 16.2357 315.076 16.2148C315.328 16.1898 315.47 16.1773 315.502 16.1773C315.541 16.1773 315.589 16.1814 315.644 16.1898C315.648 16.2482 315.65 16.2941 315.65 16.3274L315.638 16.5151C315.638 16.5527 315.636 16.609 315.632 16.684C315.261 16.7424 314.96 16.83 314.727 16.9468C314.566 17.0302 314.485 17.1345 314.485 17.2596V17.3535L314.585 19.268C314.597 19.4432 314.629 20.3128 314.68 21.877C314.692 22.2273 314.717 22.6715 314.757 23.2096C314.765 23.2763 314.769 23.3285 314.769 23.366C314.773 23.4661 314.792 23.5308 314.828 23.56C314.867 23.5892 315.222 23.7101 315.892 23.9228C315.896 23.9896 315.898 24.0396 315.898 24.073C315.898 24.1606 315.896 24.2482 315.892 24.3358C315.786 24.3358 315.518 24.3128 315.088 24.2669C314.658 24.2169 314.256 24.1919 313.882 24.1919C313.311 24.1919 312.755 24.2169 312.215 24.2669C312.144 24.2753 312.075 24.2815 312.008 24.2857L312.02 23.854C312.181 23.7873 312.396 23.731 312.664 23.6851C312.853 23.6517 312.974 23.5954 313.025 23.5162C313.076 23.4369 313.102 23.2158 313.102 22.853C313.102 22.7153 313.1 22.5944 313.096 22.4901C313.076 22.0521 313.064 21.4432 313.06 20.6632L312.96 18.4546C312.948 18.1418 312.934 17.9249 312.918 17.804L311.446 21.3827C311.411 21.4661 311.358 21.5871 311.287 21.7456C311.196 21.9499 311.135 22.0897 311.104 22.1648C310.8 22.9364 310.589 23.5266 310.471 23.9353C310.439 24.0396 310.392 24.1752 310.329 24.342L309.874 24.3358L309.555 23.3785C309.46 23.1283 309.298 22.7487 309.07 22.2398C308.936 21.9437 308.831 21.7039 308.757 21.5203C308.721 21.4453 308.695 21.3889 308.68 21.3514L308.609 21.195C308.605 21.17 308.599 21.1491 308.591 21.1324L307.71 19.1241L307.172 17.9041L307.125 20.8634L307.084 22.7842C307.084 23.1011 307.139 23.3285 307.249 23.4661C307.363 23.5996 307.606 23.7143 307.976 23.8102L308.26 23.8853V24.342C308.031 24.3379 307.785 24.3212 307.521 24.292C307.261 24.2586 306.914 24.2419 306.481 24.2419C306.39 24.2419 306.002 24.2607 305.316 24.2982Z" fill="white"/>
<path d="M316.418 24.2982L316.436 23.8728C316.928 23.806 317.242 23.6997 317.376 23.5537C317.462 23.4536 317.53 23.1929 317.577 22.7716L317.654 20.5443L317.742 18.2795C317.75 18.1418 317.754 18.0584 317.754 18.0292C317.754 17.4411 317.721 17.1011 317.654 17.0094C317.591 16.9176 317.338 16.8279 316.897 16.7404C316.787 16.7153 316.7 16.6945 316.637 16.6778C316.629 16.5735 316.625 16.4859 316.625 16.415V16.2211C316.771 16.2086 316.942 16.2023 317.139 16.2023L318.871 16.2649C318.911 16.269 318.966 16.2732 319.037 16.2774L319.309 16.2899C319.376 16.3733 319.443 16.4838 319.51 16.6215C319.656 16.926 319.849 17.3723 320.089 17.9604L320.154 18.1293L321.077 20.2503C321.096 20.3003 321.128 20.3733 321.171 20.4692C321.23 20.6194 321.291 20.7633 321.354 20.9009C321.417 21.0344 321.482 21.1825 321.549 21.3452C321.62 21.5078 321.687 21.6517 321.75 21.7769C321.806 21.6767 321.859 21.5662 321.91 21.4453C322.068 21.0615 322.221 20.7091 322.371 20.3879C322.631 19.8206 322.984 18.9531 323.429 17.7852C323.5 17.5975 323.617 17.316 323.778 16.9406C323.944 16.561 324.034 16.3608 324.05 16.3399C324.086 16.3066 324.156 16.2899 324.263 16.2899C324.302 16.2899 324.363 16.2878 324.446 16.2836C324.651 16.2711 324.897 16.2607 325.185 16.2523C325.599 16.2482 325.93 16.2357 326.178 16.2148C326.431 16.1898 326.572 16.1773 326.604 16.1773C326.643 16.1773 326.691 16.1814 326.746 16.1898C326.75 16.2482 326.752 16.2941 326.752 16.3274L326.74 16.5151C326.74 16.5527 326.738 16.609 326.734 16.684C326.363 16.7424 326.062 16.83 325.829 16.9468C325.668 17.0302 325.587 17.1345 325.587 17.2596V17.3535L325.688 19.268C325.699 19.4432 325.731 20.3128 325.782 21.877C325.794 22.2273 325.82 22.6715 325.859 23.2096C325.867 23.2763 325.871 23.3285 325.871 23.366C325.875 23.4661 325.895 23.5308 325.93 23.56C325.969 23.5892 326.324 23.7101 326.994 23.9228C326.998 23.9896 327 24.0396 327 24.073C327 24.1606 326.998 24.2482 326.994 24.3358C326.888 24.3358 326.62 24.3128 326.19 24.2669C325.76 24.2169 325.359 24.1919 324.984 24.1919C324.413 24.1919 323.857 24.2169 323.317 24.2669C323.246 24.2753 323.177 24.2815 323.11 24.2857L323.122 23.854C323.284 23.7873 323.498 23.731 323.766 23.6851C323.955 23.6517 324.076 23.5954 324.127 23.5162C324.178 23.4369 324.204 23.2158 324.204 22.853C324.204 22.7153 324.202 22.5944 324.198 22.4901C324.178 22.0521 324.166 21.4432 324.162 20.6632L324.062 18.4546C324.05 18.1418 324.036 17.9249 324.021 17.804L322.548 21.3827C322.513 21.4661 322.46 21.5871 322.389 21.7456C322.298 21.9499 322.237 22.0897 322.206 22.1648C321.902 22.9364 321.691 23.5266 321.573 23.9353C321.542 24.0396 321.494 24.1752 321.431 24.342L320.976 24.3358L320.657 23.3785C320.562 23.1283 320.401 22.7487 320.172 22.2398C320.038 21.9437 319.934 21.7039 319.859 21.5203C319.823 21.4453 319.798 21.3889 319.782 21.3514L319.711 21.195C319.707 21.17 319.701 21.1491 319.693 21.1324L318.812 19.1241L318.274 17.9041L318.227 20.8634L318.186 22.7842C318.186 23.1011 318.241 23.3285 318.351 23.4661C318.466 23.5996 318.708 23.7143 319.078 23.8102L319.362 23.8853V24.342C319.134 24.3379 318.887 24.3212 318.623 24.292C318.363 24.2586 318.016 24.2419 317.583 24.2419C317.492 24.2419 317.104 24.2607 316.418 24.2982Z" fill="white"/>
</svg>
